<?xml version="1.0" encoding="UTF-8" standalone="no"?>
<!-- Created with Inkscape (http://www.inkscape.org/) -->

<svg
    xmlns:dc="http://purl.org/dc/elements/1.1/"
    xmlns:cc="http://creativecommons.org/ns#"
    xmlns:rdf="http://www.w3.org/1999/02/22-rdf-syntax-ns#"
    xmlns:svg="http://www.w3.org/2000/svg"
    xmlns="http://www.w3.org/2000/svg"
    xmlns:sodipodi="http://sodipodi.sourceforge.net/DTD/sodipodi-0.dtd"
    xmlns:inkscape="http://www.inkscape.org/namespaces/inkscape"
    width="678.97858"
    height="859.2561"
    id="svg2"
    version="1.1"
    inkscape:version="0.92.5 (2060ec1f9f, 2020-04-08)"
    sodipodi:docname="Quindío (municipios).svg">
    <defs
        id="defs4" />
    <sodipodi:namedview
        id="base"
        pagecolor="#ffffff"
        bordercolor="#666666"
        borderopacity="1.0"
        inkscape:pageopacity="0.0"
        inkscape:pageshadow="2"
        inkscape:zoom="0.83793411"
        inkscape:cx="339.48929"
        inkscape:cy="429.62805"
        inkscape:document-units="px"
        inkscape:current-layer="layer1"
        showgrid="false"
        inkscape:window-width="1920"
        inkscape:window-height="986"
        inkscape:window-x="-11"
        inkscape:window-y="-11"
        inkscape:window-maximized="1"
        fit-margin-top="0"
        fit-margin-left="0"
        fit-margin-right="0"
        fit-margin-bottom="0"
        inkscape:snap-page="false"
        showguides="true"
        inkscape:guide-bbox="true"
        inkscape:snap-bbox="true"
        borderlayer="true" />
    <metadata
        id="metadata7">
        <rdf:RDF>
            <cc:Work
                rdf:about="">
                <dc:format>image/svg+xml</dc:format>
                <dc:type
                    rdf:resource="http://purl.org/dc/dcmitype/StillImage" />
                <dc:title></dc:title>
            </cc:Work>
        </rdf:RDF>
    </metadata>
    <g
        inkscape:groupmode="layer"
        id="layer3"
        inkscape:label="Fondo"
        style="display:inline"
        transform="translate(-1756.1282,-4457.8589)">
        <rect
            style="opacity:0.98999999000000005;fill:#f2f2f2;fill-opacity:1;stroke:none"
            id="rect9231"
            width="678.97858"
            height="859.2561"
            x="1756.1282"
            y="4457.8589" />
    </g>
    <g
        transform="translate(-1461.3782,-4043.884)"
        style="display:inline"
        inkscape:label="Entidades"
        id="g968"
        inkscape:groupmode="layer">
        <path
            inkscape:connector-curvature="0"
            id="path944"
            style="fill:#cccccc;stroke:none;stroke-width:0.6;stroke-linecap:butt;stroke-linejoin:round;stroke-miterlimit:4;stroke-opacity:1;stroke-dasharray:none"
            d="m 1636.337,4469.5837 0.3926,-4.673 -1.5266,-1.192 -3.0532,1.6392 -2.7478,-6.4074 -3.2058,-0.596 1.8318,-3.7252 -0.916,-1.341 3.5112,-4.0232 4.2746,-2.235 3.8164,0 1.0686,-2.8312 2.4426,0 4.7324,-2.8312 -0.3052,-1.49 1.6792,-3.5762 3.5112,-0.148 1.6792,-4.9174 1.5266,-0.894 0,-3.5762 -1.8318,-1.043 0.6106,-3.8742 1.6792,-0.894 -0.152,-2.533 1.9846,-2.0862 0.458,-3.4272 -1.8318,-2.682 2.4424,-1.043 -0.152,-5.6624 -1.5266,-0.298 -3.3586,4.7682 -5.8012,1.9372 -3.8164,0.148 2.4426,-2.235 0.6106,-5.0662 -5.6484,2.235 -7.9384,0.447 1.5266,-2.831 6.717,-2.0862 5.4958,-2.235 1.6794,-4.0232 -1.5266,-5.9602 2.2898,-3.7252 0.152,-3.7252 -3.2058,1.49 -1.0686,-2.235 -2.5954,-0.596 0.916,-3.8742 7.9384,-4.9172 11.9074,-0.148 7.9384,-5.6622 1.9846,-4.0232 3.3586,-2.2352 -6.8698,-1.192 -5.0378,1.7882 -5.343,-0.2982 -4.4272,1.6392 -7.9384,-0.894 -6.5644,2.384 -1.2212,-1.788 -3.206,0 -3.0532,3.7252 -2.2898,-0.5962 -1.374,3.5762 -5.1904,0 -1.6792,1.7882 -3.664,0.447 -1.9844,2.235 -6.9662,-0.9218 0.7038,-3.6104 5.6132,1.4752 9.7154,-4.0038 -1.2954,-4.004 -4.318,0.2108 2.3748,-5.0574 6.0452,-6.3218 -1.9432,-3.7932 4.102,-4.4252 -1.2952,-4.4252 7.772,-10.7472 3.4544,-3.1608 1.7272,-10.7472 2.3748,-2.318 -0.6476,-3.1608 6.9086,-6.7434 6.045,-0.8428 2.3748,2.318 4.102,-1.0536 2.5908,-4.2146 c 0,0 5.829,5.479 7.1244,5.479 1.2954,0 1.2954,-2.318 1.2954,-2.318 l 3.92,-0.108 4.9342,0.822 0.6106,1.192 2.29,-0.148 -0.916,-2.682 6.8698,-4.0232 1.0686,3.7252 2.1372,-3.5762 2.5952,0.447 3.2058,-1.788 3.206,2.086 3.8164,-3.2782 3.9692,2.2352 0.7634,-5.0662 2.7478,-0.298 2.1372,-1.1922 1.832,3.8742 3.2058,-0.447 -0.7632,-3.4272 2.5952,0.596 2.5952,-2.831 6.259,-2.2352 3.0532,2.2352 2.1372,-1.341 3.206,3.278 4.885,-1.341 3.3586,1.49 2.2898,-1.937 3.206,0.148 7.175,-4.0232 2.2898,-4.6192 5.6486,-4.3212 1.8318,-4.3212 -2.4426,-1.7882 0.458,-2.086 3.664,-1.49 -0.458,-2.2352 2.5952,-1.937 0.458,-3.4272 3.0532,-0.447 1.5266,-2.5332 7.9382,0 3.3586,-4.1722 3.6638,-0.148 0.152,-5.0662 1.5174,-2.0398 3.732,5.9858 -2.1588,1.6858 0,5.4788 -2.159,3.7932 2.8066,2.9502 4.3178,-4.004 1.9432,2.7396 3.6128,2.5834 -5.7718,5.4242 -3.0226,-0.843 0.216,4.2146 -3.4544,1.4752 -0.2158,4.0038 0,4.636 -5.3974,5.9002 -3.4542,1.4752 -3.6702,8.0076 -2.5908,0.6322 -6.4768,4.636 -0.8636,4.4252 -3.2384,1.6858 -1.943,5.479 -6.9086,2.1072 0,3.3716 -4.9656,0.4216 -3.4544,-2.5288 -1.943,1.0536 -3.8862,0.2108 2.5908,4.0038 -1.0794,1.475 -4.7498,0.843 1.0796,3.3716 -2.159,2.5288 0.8636,1.0536 -0.8636,5.6896 0.2158,3.793 -2.8066,2.318 -0.4318,3.7932 -1.943,5.0574 -3.886,0.6322 -4.5338,3.3716 -1.7272,5.0574 -3.2384,0.6322 -1.0794,3.3716 -3.0226,0 1.2954,5.6898 -4.318,1.6858 -0.8634,2.5286 2.3748,1.4752 -3.6702,2.5286 1.0794,2.7396 -0.4318,3.793 -4.5338,0.4214 -0.8636,4.2146 1.7272,1.8966 c 0,0 -1.943,0.4214 -3.0224,1.0536 -1.0796,0.6322 1.5112,2.5288 1.5112,2.5288 l -4.5338,4.8466 -1.943,5.0574 -2.8066,2.9502 -4.318,0.4216 -0.4318,5.4788 -3.6702,-1.2644 -2.1588,2.1074 -1.2954,2.9502 -3.8862,0.2106 -1.943,4.2146 0.8636,3.5824 -5.8292,-1.0536 -2.1588,2.318 -4.318,-2.1074 -3.6702,2.5288 1.5112,2.7394 0,2.9502 -3.4542,0.6322 0,6.5326 -2.3748,5.268 0,3.161 -6.9086,1.6858 -1.5114,-2.318 -4.7496,8.6398 1.0794,2.5288 -1.943,3.793 0.4318,2.318 -4.3178,5.2682 -12.282,-1.2562 z"
            sodipodi:nodetypes="cccccccccccccccccccccccccccccccccccccccccccccccccccccccccccccccccccccccccccccccccccccccccsccccccccccccccccccccccccccccccccccccccccccccccccccccccccccccccccccccccccccccccccccccccccccccccccccccccscccccccccccccccccccccccccccccc" />
        <path
            inkscape:connector-curvature="0"
            id="path946"
            style="fill:#cccccc;stroke:none;stroke-width:0.6;stroke-linecap:butt;stroke-linejoin:round;stroke-miterlimit:4;stroke-opacity:1;stroke-dasharray:none"
            d="m 1798.2504,4241.0423 -1.3802,1.8488 -0.152,5.0662 -3.6638,0.148 -3.3586,4.1722 -7.9382,0 -1.5266,2.5332 -3.0532,0.447 -0.458,3.4272 -2.5952,1.937 0.458,2.2352 -3.664,1.49 -0.458,2.086 2.4426,1.7882 -1.8318,4.3212 -5.6486,4.3212 -2.2898,4.6192 -7.175,4.0232 -3.206,-0.15 -2.2898,1.937 -3.3586,-1.49 -4.885,1.341 -3.206,-3.278 -2.1372,1.341 -3.0532,-2.2352 -6.259,2.2352 -2.5952,2.8312 -2.5952,-0.5962 0.7632,3.4272 -3.2058,0.447 -1.832,-3.8742 -2.1372,1.1922 -2.7478,0.298 -0.7634,5.0662 -3.9692,-2.2352 -3.8164,3.2782 -3.206,-2.086 -3.2058,1.788 -2.5952,-0.447 -2.1372,3.5762 -1.0686,-3.7252 -6.8698,4.0232 0.916,2.682 -2.29,0.148 -0.6106,-1.192 -5.1904,-0.894 2.9006,-3.8742 6.259,-1.4902 3.8164,-3.278 4.4272,1.192 0.916,-1.639 7.0224,-1.9372 0,-2.682 -3.8166,0.447 2.4426,-4.0232 -5.0378,1.49 0.3054,-10.1324 2.1372,-1.7882 -0.916,-2.384 4.4272,-3.7252 3.0532,1.341 1.6792,-0.596 -2.7478,-3.278 -7.9384,-2.5332 -1.374,0.894 -2.1372,0 -3.5112,-4.3212 0.458,-2.682 -4.7324,-5.1408 0.458,-2.4586 1.9846,0 2.4426,-2.235 -1.5266,-5.6624 1.3738,-2.533 2.748,4.3212 4.885,0.148 0,-1.937 3.5112,-0.15 1.9846,-2.533 7.175,1.341 0.6108,-7.5994 3.8164,0.7452 4.4272,-3.8742 0.3052,-3.8742 6.1958,-3.3054 2.6988,-0.9386 3.2566,1.6308 0.2158,-3.5824 7.7722,-9.4826 3.6702,-0.4216 5.6132,-2.7394 8.6358,-7.1646 -0.8636,-5.0576 3.6702,-0.8428 12.7378,-19.5976 8.8516,-6.1112 3.4544,0 2.8066,-5.4788 3.4542,-0.4216 3.6702,-5.268 7.3404,3.3716 1.9432,1.6858 13.1694,-3.161 3.2384,-4.4252 3.8862,0 13.1696,-7.5862 0,-4.8468 3.2384,-1.8964 8.3928,1.0272 4.345,5.9268 -1.0796,15.383 -4.7496,0.4214 -3.2384,1.6858 0.6476,9.272 -8.6358,4.2146 -0.8636,6.7432 1.5114,2.9502 0.2158,5.479 -5.1814,7.3754 -6.045,0 -1.5114,-1.0536 -7.5562,2.9502 -5.8292,6.954 -1.7272,10.3256 -4.7496,2.318 1.7272,3.1608 -2.8066,5.479 -5.6134,5.9004 1.0796,2.5286 -2.1422,5.1632 z"
            sodipodi:nodetypes="cccccccccccccccccccccccccccccccccccccccccccccccccccccccccccccccccccccccccccccccccccccccccccccccccccccccccccccccccccccccccccccccccc" />
        <path
            inkscape:connector-curvature="0"
            id="path948"
            style="fill:#cccccc;stroke:none;stroke-width:0.6;stroke-linecap:butt;stroke-linejoin:round;stroke-miterlimit:4;stroke-opacity:1;stroke-dasharray:none"
            d="m 1708.3294,4491.4629 -1.527,-3.6594 -3.4544,-2.7394 -1.835,-9.5882 1.1874,-3.6876 -1.0794,-8.5346 -2.3748,-1.0536 -1.7812,-3.319 -4.8036,-1.9492 -4.7498,3.0556 -13.4934,0.4214 -15.976,9.6934 -0.5398,3.7932 3.3464,2.2126 -2.9146,3.2662 2.6986,7.2702 0.108,4.636 -2.051,0.106 -4.8578,2.318 -3.994,-0.4214 -3.0224,1.7912 -2.267,3.6878 -5.829,4.6358 -5.5054,0 -2.5908,1.3698 -3.3462,16.7528 1.2414,6.1112 3.2922,-3.477 2.159,0 3.4544,7.27 4.102,-1.3698 1.4032,2.4234 3.6702,-2.7394 2.3748,0.316 -1.943,3.0556 2.9146,4.0038 3.1304,-0.4214 3.0226,1.8966 2.051,-0.9484 5.5052,4.1092 7.4484,0 10.6868,-6.8486 14.8966,-2.002 3.6702,0.6322 8.42,-3.793 1.6192,-4.4252 4.4258,-0.2108 -1.5112,-3.2662 -0.8636,-3.6878 -4.8576,-5.795 1.2954,-7.9022 0.2158,-6.638 -1.7272,-2.2126 0.5556,-4.1374 z"
            sodipodi:nodetypes="cccccccccccccccccccccccccccccccccccccccccccccccccccccc" />
        <path
            id="path950"
            style="fill:#ebcef2;stroke:none;stroke-width:0.6;stroke-linecap:butt;stroke-linejoin:round;stroke-miterlimit:4;stroke-opacity:1;stroke-dasharray:none;display:inline"
            d="m 1883.9218,4102.4007 -3.7508,-1.7318 -4.0392,-5.484 -8.9442,0.2886 -9.8096,5.7726 -5.1934,0 -6.059,-8.0818 -6.636,2.0206 -7.0686,9.212 -7.79,-0.289 -6.9246,-3.4634 -7.79,2.0204 -10.6752,-3.4636 -5.7704,-4.618 -2.8852,2.5976 -5.7704,1.1546 0,4.3294 -5.482,5.7728 -6.3474,-5.484 -7.5014,-0.5772 0.2884,-3.4638 -3.1736,-2.5976 -6.059,0 -2.0196,-4.041 -5.1934,-3.752 -6.059,-0.2886 -4.5548,-4.5596 -6.602,0 -3.546,2.3168 -7.2964,2.6878 -5.6204,-0.8344 -1.6346,0.9578 5.9954,4.7542 -2.5802,15.9964 4.2278,12.754 -2.0594,8.2142 6.9238,11.4626 -1.4604,11.6444 -5.0822,5.75 -8.2374,1.6428 -14.8278,-0.8214 -13.1802,-4.1072 -7.1556,1.505 3.1298,9.5852 3.2384,0.2106 1.5114,15.1724 -1.5114,8.0076 -3.6702,1.0536 -4.1018,6.7434 -1.9432,0.8428 0,5.479 -2.5906,1.475 8.8516,4.8468 2.8066,0.6322 1.5112,3.1608 3.4544,0.6322 1.943,2.1074 3.2384,0.632 1.2954,-3.793 7.5564,-3.3716 2.8066,-0.4214 6.6926,-3.5824 3.2384,-7.797 2.159,0.843 3.6702,-1.4752 2.3748,0.6322 -0.6476,4.636 0.4318,2.1074 -4.102,2.95 3.4542,1.8966 1.0796,-1.2644 5.6132,-0.2106 -1.7272,3.5824 1.7272,2.5286 -2.051,4.1092 3.1122,-1.3148 3.2566,1.631 0.216,-3.5824 7.7722,-9.4828 3.6702,-0.4214 5.6132,-2.7394 8.6358,-7.1648 -0.8636,-5.0574 3.6702,-0.843 12.7378,-19.5976 8.8516,-6.111 3.4542,0 2.8068,-5.479 3.4542,-0.4214 3.6702,-5.2682 7.3404,3.3716 1.943,1.6858 13.1696,-3.1608 3.2384,-4.4254 3.8862,0 13.1694,-7.586 0,-4.8468 3.2384,-1.8966 8.1252,1.0102 4.8286,-1.6424 0.2158,-6.7432 4.102,-1.2644 2.5908,-5.4788 6.4768,-3.161 4.9656,1.8966 1.2952,-4.8468 4.5338,-0.8428 1.9432,-2.9502 3.0224,-0.4216 0.4318,-5.4788 5.6186,-4.7752 z"
            inkscape:connector-curvature="0"
            sodipodi:nodetypes="cccccccccccccccccccccccccccccccccccccccccccccccccccccccccccccccccccccccccccccccccccccccccccccccccccccccccccccccc" />
        <path
            id="path952"
            style="fill:#fffdc0;stroke:none;stroke-width:0.6;stroke-linecap:butt;stroke-linejoin:round;stroke-miterlimit:4;stroke-opacity:1;stroke-dasharray:none;display:inline"
            d="m 1675.4956,4157.7347 -5.7662,4.9288 -11.5328,1.6428 -9.0614,-7.393 -6.5902,0 -13.18,-4.9286 -5.7664,0 -13.1802,4.9286 -9.0614,0 -6.5902,-7.3928 -4.9424,0 -9.1084,-2.8118 -3.542,6.6228 0,6.9702 -11.0672,13.9402 -13.3972,5.2276 -3.495,4.6468 0.5824,6.1212 -4.0774,0.5808 -1.7474,9.8744 -4.9382,8.2658 -5.6852,-0.094 -4.5614,8.1202 8.2376,9.0358 -2.412,0.725 4.9426,5.7502 -9.0614,2.4642 -1.6474,4.1072 -6.5902,5.75 4.1188,4.1072 2.5952,0.7276 1.1224,-2.1834 1.943,2.9502 2.375,0 3.0224,1.475 2.159,-1.0536 2.159,2.5286 0.2158,-2.95 3.2384,0.632 1.7272,2.7396 0,2.9502 2.5908,1.475 0,3.161 2.3748,-2.1074 -0.216,-2.318 2.5908,1.2644 0,2.5288 2.159,0.2106 0.8636,-3.5822 3.0224,-2.1074 3.2384,2.318 -2.8066,2.318 0.8636,2.7394 3.4542,-2.95 1.7272,4.0038 3.4544,-3.3718 2.3748,3.5824 3.886,0.2108 4.5338,-1.6858 0.216,-1.2644 5.1814,1.2644 4.102,-2.318 1.2954,-1.8966 5.6132,0.843 4.5338,3.5822 6.045,1.6858 0.216,2.7396 5.6132,-0.843 0.6476,2.318 9.9312,1.8966 0.6476,-1.0536 4.5338,2.5286 0.216,-2.9502 2.5906,-0.4214 3.0226,-2.7394 2.8066,3.5824 4.102,-0.843 0,-3.5824 1.943,-0.6322 1.0796,1.4752 6.6926,-0.843 0.8636,-1.0536 6.261,-3.5824 0.6476,2.5288 7.5564,2.7394 1.5112,-3.1608 1.7272,0.2106 2.5906,-4.2144 0,-2.7396 3.4544,-3.5822 1.943,5.0574 3.4544,-0.2108 0.2158,-5.2682 3.692,-3.0098 0.5064,-2.3558 1.9846,0 2.4426,-2.235 -1.5266,-5.6622 1.374,-2.5332 2.7478,4.3212 4.8852,0.148 0,-1.9372 3.5112,-0.148 1.9846,-2.5332 7.175,1.3412 0.6106,-7.5994 3.8166,0.745 4.427,-3.8742 0.3054,-3.8742 5.957,-3.0924 0,10e-4 1.8762,-3.946 -1.7272,-2.5288 1.7272,-3.5822 -5.6132,0.2106 -1.0796,1.2644 -3.4542,-1.8966 4.102,-2.9502 -0.4318,-2.1072 0.6476,-4.636 -2.3748,-0.6322 -3.6702,1.4752 -2.159,-0.843 -3.2384,7.797 -6.6926,3.5822 -2.8066,0.4216 -7.5564,3.3716 -1.2954,3.793 -3.2384,-0.6322 -1.943,-2.1072 -3.4544,-0.6322 -1.5112,-3.1608 -2.8066,-0.6322 -8.8516,-4.8468 2.5906,-1.475 0,-5.479 1.9432,-0.8428 4.1018,-6.7434 3.6702,-1.0536 1.5114,-8.0076 -1.5114,-15.1724 -3.2384,-0.2106 -3.0338,-9.6532 z"
            inkscape:connector-curvature="0"
            sodipodi:nodetypes="cccccccccccccccccccccccccccccccccccccccccccccccccccccccccccccccccccccccccccccccccccccccccccccccccccccccccccccccccccccccccccccccccccccccccccccccc" />
        <path
            sodipodi:nodetypes="ccccccccccccccccccccccsccccscccccccccccccccccccccccccccccccccccccccccscccccccccccccccccccccccccccccccccccccccccccccccccccccccccccccccccccccccccccccccccccccccccccccccccccccccccccccccccccccccccccccc"
            inkscape:connector-curvature="0"
            d="m 1525.5924,4393.0967 1.8318,-2.831 2.748,0 2.1372,-0.8942 3.8166,3.1292 1.8318,-1.341 4.2746,2.533 1.5266,-0.447 -0.3054,4.1722 5.1904,0 0.6106,-0.596 1.5268,0.596 -0.3054,2.0862 2.5952,0 1.0686,1.937 0.916,-2.086 3.5112,1.341 1.2212,2.831 1.832,-1.043 1.5266,2.0862 1.9846,-2.0862 1.6792,0.894 c 0,0 4.5798,0.148 5.1904,0.148 0.6108,0 2.5952,0.298 2.5952,0.298 l 6.7172,-1.341 2.1372,0.148 -0.152,-4.1722 c 0,0 3.3586,0 3.9692,0.298 0.6106,0.298 1.2212,1.639 1.2212,1.639 l 1.0686,-0.15 -0.458,-2.533 1.6794,-0.596 1.2212,-2.6822 2.9006,0 0.916,-2.086 -1.9846,-1.9372 0.3052,-0.596 2.5952,0 1.5266,-2.235 3.0532,0.447 -1.5266,-4.6192 1.0688,-0.894 -1.5266,-1.3412 3.0532,-2.533 2.9004,0 -1.6792,-2.8312 3.3586,-1.788 3.3584,0 -0.3534,-3.2194 0.6556,-3.846 5.6132,1.4752 9.7152,-4.0038 -1.2954,-4.004 -4.3178,0.2108 2.3748,-5.0574 6.045,-6.3218 -1.943,-3.7932 4.102,-4.4252 -1.2954,-4.4252 7.7722,-10.7472 3.4544,-3.1608 1.727,-10.7472 2.375,-2.318 -0.6478,-3.1608 6.9086,-6.7434 6.045,-0.8428 2.375,2.318 4.102,-1.0536 2.5906,-4.2146 c 0,0 5.8292,5.479 7.1246,5.479 1.2954,0 1.2954,-2.318 1.2954,-2.318 l 3.5766,-0.132 2.9876,-3.9226 6.2592,-1.49 3.8164,-3.2782 4.4272,1.192 0.916,-1.639 7.0224,-1.937 0,-2.6822 -3.8166,0.447 2.4426,-4.0232 -5.0378,1.4902 0.3052,-10.1326 2.1374,-1.788 -0.916,-2.3842 4.4272,-3.725 3.0532,1.341 1.6792,-0.596 -2.748,-3.2782 -7.9382,-2.5332 -1.374,0.8942 -2.1372,0 -3.5112,-4.3212 0.458,-2.6822 -4.7754,-5.2188 -6e-4,0 -3.6976,2.985 -0.216,5.2682 -3.4542,0.2106 -1.9432,-5.0574 -3.4542,3.5824 0,2.7394 -2.5908,4.2146 -1.727,-0.2108 -1.5114,3.161 -7.5562,-2.7394 -0.6478,-2.5288 -6.2608,3.5824 -0.8636,1.0536 -6.6928,0.8428 -1.0794,-1.475 -1.943,0.6322 0,3.5824 -4.102,0.8428 -2.8066,-3.5824 -3.0226,2.7396 -2.5908,0.4214 -0.2158,2.9502 -4.5338,-2.5288 -0.6476,1.0536 -9.9312,-1.8964 -0.6476,-2.318 -5.6134,0.8428 -0.2158,-2.7394 -6.045,-1.6858 -4.5338,-3.5824 -5.6134,-0.8428 -1.2952,1.8964 -4.102,2.318 -5.1816,-1.2644 -0.2158,1.2644 -4.5338,1.6858 -3.886,-0.2106 -2.375,-3.5824 -3.4542,3.3716 -1.7272,-4.0038 -3.4542,2.9502 -0.8636,-2.7394 2.8066,-2.318 -3.2384,-2.318 -3.0226,2.1072 -0.8636,3.5824 -2.1588,-0.2108 0,-2.5286 -2.5908,-1.2644 0.2158,2.318 -2.3748,2.1072 0,-3.1608 -2.5906,-1.4752 0,-2.9502 -1.7272,-2.7394 -3.2384,-0.6322 -0.216,2.9502 -2.1588,-2.5288 -2.159,1.0536 -3.0226,-1.475 -2.3748,0 -1.943,-2.9502 -1.1976,2.5202 0.7758,4.6816 7.4138,3.2856 -4.9426,3.2858 0,4.9286 -4.1188,0 0,4.9286 -10.709,5.75 6.2004,6.4436 6.0178,5.6804 -3.495,3.485 -4.0774,-1.7424 -5.2424,4.0658 0,8.7126 -4.0774,6.9702 6.9898,-1.7426 1.165,2.3234 5.2424,1.7426 -4.6598,4.6466 6.4074,2.9042 -0.5826,4.6468 -2.9124,1.7426 3.495,7.551 -4.9246,4.6466 2.1842,7.551 -6.8442,1.1618 0,5.8084 -4.6598,7.551 5.8248,3.485 4.0774,0 2.9126,4.6468 -2.9126,2.3232 -1.165,5.2276 -9.9022,5.2276 4.66,1.7426 0,8.1318 9.4836,4.0666 z"
            style="fill:#cccccc;stroke:none;stroke-width:0.6;stroke-linecap:butt;stroke-linejoin:round;stroke-miterlimit:4;stroke-opacity:1;stroke-dasharray:none;display:inline"
            id="path954" />
        <path
            sodipodi:nodetypes="ccccscccccccccccccccccccccccccccccccccccccccccccccccccccccccccccccccccccccccccccccccccccccccccccsccccscccccccccccccccccccccccccccccccccccccccccccccccccccccccccccc"
            inkscape:connector-curvature="0"
            d="m 1614.1358,4472.6633 7.4804,-4.1722 2.5952,4.0232 1.6792,-3.4272 c 0,0 2.4426,1.788 3.3586,1.788 0.9158,0 4.885,-1.937 4.885,-1.937 l 2.2574,0.7022 2e-4,0 0.3378,-4.7256 -1.5266,-1.192 -3.0532,1.6392 -2.7478,-6.4074 -3.2058,-0.596 1.8318,-3.7252 -0.916,-1.341 3.5112,-4.0232 4.2746,-2.235 3.8164,0 1.0686,-2.8312 2.4426,0 4.7324,-2.8312 -0.3052,-1.49 1.6792,-3.5762 3.5112,-0.148 1.6792,-4.9174 1.5266,-0.894 0,-3.5762 -1.8318,-1.043 0.6106,-3.8742 1.6792,-0.894 -0.152,-2.533 1.9846,-2.0862 0.458,-3.4272 -1.8318,-2.682 2.4424,-1.043 -0.152,-5.6624 -1.5266,-0.298 -3.3586,4.7682 -5.8012,1.9372 -3.8164,0.148 2.4426,-2.235 0.6106,-5.0662 -5.6484,2.235 -7.9384,0.447 1.5266,-2.831 6.717,-2.0862 5.4958,-2.235 1.6794,-4.0232 -1.5266,-5.9602 2.2898,-3.7252 0.152,-3.7252 -3.2058,1.49 -1.0686,-2.235 -2.5954,-0.596 0.916,-3.8742 7.9384,-4.9172 11.9074,-0.148 7.9384,-5.6622 1.9846,-4.0232 3.3586,-2.2352 -6.8698,-1.192 -5.0378,1.7882 -5.343,-0.2982 -4.4272,1.6392 -7.9384,-0.894 -6.5644,2.384 -1.2212,-1.788 -3.206,0 -3.0532,3.7252 -2.2898,-0.5962 -1.374,3.5762 -5.1904,0 -1.6792,1.7882 -3.664,0.447 -1.9844,2.235 -6.9316,-0.9476 0.3672,3.4808 -3.3586,0 -3.3586,1.788 1.6794,2.8312 -2.9006,0 -3.0532,2.533 1.5266,1.3412 -1.0686,0.894 1.5266,4.6192 -3.0532,-0.447 -1.5266,2.235 -2.5952,0 -0.3054,0.596 1.9846,1.9372 -0.916,2.086 -2.9006,0 -1.2212,2.6822 -1.6792,0.596 0.458,2.533 -1.0686,0.15 c 0,0 -0.6108,-1.341 -1.2214,-1.639 -0.6106,-0.298 -3.9692,-0.298 -3.9692,-0.298 l 0.152,4.1722 -2.1372,-0.148 -6.717,1.341 c 0,0 -1.9846,-0.298 -2.5952,-0.298 -0.6108,0 -5.1906,-0.148 -5.1906,-0.148 l -1.6792,-0.894 -1.9846,2.0862 -1.5266,-2.0862 -1.8318,1.043 -1.2214,-2.831 -3.5112,-1.341 -0.916,2.086 -1.0686,-1.937 -2.5952,0 0.3054,-2.0862 -1.5266,-0.596 -0.6106,0.596 -5.1906,0 0.3054,-4.1722 -1.5266,0.447 -4.2744,-2.533 -1.832,1.341 -3.8166,-3.1292 -2.1372,0.8942 -2.7478,0 -1.832,2.831 1.2714,2.7946 2.9858,1.1216 -5.8248,6.3892 -4.66,0 -5.8248,4.6468 -9.3198,0 6.4074,5.8084 -6.99,2.9042 2.9126,11.0362 -7.2812,3.6902 -3.2036,2.699 6.9898,3.485 -7.698,4.8972 1.2906,3.2346 11.0672,2.9042 1.7476,-1.7424 1.7474,3.485 13.3972,0.5808 3.495,1.1618 1.7474,-3.4852 2.9124,0 8.155,-4.0658 4.0774,6.97 7.135,2.9232 4.8772,-1.5712 4.6598,0 3.1326,9.1032 6.9898,-3.485 2.33,-6.3892 5.8248,5.2274 1.9936,3.7036 4.137,-2.5042 1.4418,6.7558 7.171,-4.0288 2.9124,2.3234 7.5724,2.3234 7.0896,6.2814 z"
            style="fill:#cccccc;stroke:none;stroke-width:0.6;stroke-linecap:butt;stroke-linejoin:round;stroke-miterlimit:4;stroke-opacity:1;stroke-dasharray:none;display:inline"
            id="path956" />
        <path
            id="path958"
            style="fill:#cccccc;stroke:none;stroke-width:0.6;stroke-linecap:butt;stroke-linejoin:round;stroke-miterlimit:4;stroke-opacity:1;stroke-dasharray:none;display:inline"
            d="m 1777.329,4673.6689 -4.1218,-0.447 -2.9006,-6.8542 -3.969,-0.596 -3.8166,-7.3014 -15.4186,-4.6192 -2.9006,0 -4.5798,-1.49 -12.2128,-0.7452 -10.381,4.7684 -4.1218,4.9172 -12.8234,4.0232 -12.8234,-2.3842 -5.8012,-9.8344 -11.2968,-3.2782 -5.6484,-3.2782 -4.2746,-0.745 -1.5266,-3.5762 4.5798,-4.1722 1.832,-11.6224 4.7324,-2.9802 0.6108,-5.8112 3.3584,-5.2152 -0.152,-4.3212 c 0,0 0.7634,-0.148 0.7634,-1.043 0,-0.894 -1.2214,-6.1094 -1.2214,-6.1094 l -3.0532,-0.596 -3.3584,1.043 -2.9006,-3.129 -4.8852,0.596 -5.9536,-6.5564 -4.8852,-0.596 -4.7324,0.894 -4.4272,-3.129 -0.6106,-2.6822 -1.832,-4.0232 -4.8852,0.596 -3.0532,-5.6622 -5.4958,-0.745 -5.4956,-4.3956 -1.8546,4.6268 7.5724,2.3234 -1.5212,4.3932 4.0774,4.0658 -1.1652,2.9042 -1.7474,1.7426 -1.7472,5.8084 -2.9126,2.3234 -0.5824,9.8744 -4.66,2.9042 0,5.8084 -3.3492,8.5674 -2e-4,2e-4 -8.3004,5.9536 0,8.4222 -4.9512,9.2936 -5.2424,2.0328 -0.2912,6.099 -1.7474,0.5808 0.2912,2.9042 1.7474,2.9042 -8.1118,6.6152 -3.0482,12.9434 4.3696,7.9778 4.1912,5.482 -3.2256,11.7066 -4.9512,5.518 -13.3972,26.4284 -0.5824,6.3892 -6.99,7.551 0.8738,9.8742 2.6212,2.033 -1.165,3.1946 -1.7474,0.2906 -1.4564,3.485 4.0776,9.5838 -3.7862,3.4852 5.8248,12.488 5.825,0.8714 0,8.1318 -7.5724,6.0988 0.5824,8.1318 5.5336,-0.2904 1.7476,-2.3234 9.9022,0 14.5622,7.551 11.941,1.1616 9.6112,5.8084 10.776,0.581 0,-3.7756 4.9512,4.066 0.9234,9.056 2.4712,4.9286 21.4178,-1.6428 11.951,2.9378 4.5778,-8.0198 -2.4732,-5.6862 3.5304,-10.9042 6.4974,-5.379 10.863,-0.8142 0.8356,-6.5134 -5.0138,-7.3274 4.1782,-4.0708 8.3564,4.885 6.4804,-0.4942 3.3426,0 -0.8354,-9.6894 4.6042,-6.62 8.1344,-3.5504 3.3938,4.0708 4.1782,-7.3276 9.1406,-0.814 2.4956,-6.5254 -1.7272,-9.9042 0.2158,-6.5326 4.7498,-6.7432 -3.0226,-6.954 3.5454,-6.4728 7.2494,-3.6422 6.4768,-11.3792 8.204,-4.2146 4.3178,-9.4828 0.216,-5.4788 9.931,-2.5288 5.5446,-6.3482 -0.034,-12.0902 -6.3738,-2.2912 -1.2494,-6.4768 z"
            inkscape:connector-curvature="0"
            sodipodi:nodetypes="ccccccccccccccccccccccccscccccccccccccccccccccccccccccccccccccccccccccccccccccccccccccccccccccccccccccccccccccccccccccccccccccccc" />
        <path
            id="path960"
            style="fill:#cccccc;stroke:none;stroke-width:0.6;stroke-linecap:butt;stroke-linejoin:round;stroke-miterlimit:4;stroke-opacity:1;stroke-dasharray:none;display:inline"
            d="m 1872.804,4436.2423 -5.0526,4.4636 -4.5336,0.2108 -9.9312,-6.3218 -2.159,-6.5326 -14.8966,-5.6896 -6.0452,1.8966 -5.3972,7.5862 -7.1246,0 -3.886,1.475 -1.7272,5.2682 -3.6702,-0.843 -2.159,-4.636 -5.3972,7.5862 -7.1246,0.2108 -6.4768,1.6858 -7.3404,-5.4788 -10.5788,-0.6322 -6.9086,3.5822 -19.8624,-1.2642 -4.3178,-2.9502 -6.6928,-0.4216 -7.1244,6.954 -5.3974,-4.4252 -3.886,0 0,1.0536 -1.9432,2.5288 0.8636,2.7394 -3.0224,2.7394 -2.159,4.2146 -1.943,-1.475 -3.8862,-0.2108 0.6478,2.1072 -2.5908,3.7932 -2.5908,-2.5288 -0.6476,1.2644 0.8636,2.9502 -1.3494,1.5278 1.8892,3.5296 2.3748,1.0536 1.0794,8.5346 -1.1874,3.6876 1.835,9.5882 3.4544,2.7394 1.4008,3.343 3.0246,2.6716 2.4426,0.148 0.6106,2.5332 3.5112,1.192 -0.3052,4.9172 1.2212,0.298 1.9846,2.6822 4.4272,-4.6192 3.6638,1.49 3.2058,-0.148 1.9846,-3.1292 2.9006,-0.298 0.7632,4.7682 5.8012,10.8774 5.801,0.447 6.4118,-2.98 7.3276,-1.6392 1.832,1.4902 6.4118,0 4.885,-1.4902 3.9692,-0.148 2.5952,2.682 4.8852,-0.148 8.549,-7.3014 6.8696,-11.6224 6.5644,-8.3444 4.1218,2.98 15.266,-1.788 7.9384,6.5562 3.8166,1.7882 6.717,6.4072 0.3052,3.4272 12.378,9.1924 4.793,-3.793 -0.6108,-10.1326 -1.8318,-5.0662 3.0532,-5.0662 7.9382,-10.1324 -0.6106,-6.5564 5.1904,-14.9006 -3.969,-5.6622 2.1372,-2.086 0,-7.1524 -3.0532,-4.3212 z"
            inkscape:connector-curvature="0"
            sodipodi:nodetypes="cccccccccccccccccccccccccccccccccccccccccccccccccccccccccccccccccccccccccccccccccccccccccc" />
        <path
            id="path962"
            style="fill:#cccccc;stroke:none;stroke-width:0.6;stroke-linecap:butt;stroke-linejoin:round;stroke-miterlimit:4;stroke-opacity:1;stroke-dasharray:none;display:inline"
            d="m 1611.0054,4476.2921 -4.4932,2.2934 -0.622,9.4546 -3.5702,3.8446 4.7354,3.4114 0.5822,6.97 3.495,3.4852 2.9126,-0.581 4.6598,3.4852 -2.9124,7.551 6.99,3.485 1.7472,4.0658 -7.5722,4.6468 1.8564,5.4464 6.4888,-2.1104 3.6434,-4.1886 -1.2686,-6.0316 3.3464,-16.753 2.5906,-1.3696 5.5054,0 5.8292,-4.636 2.2668,-3.6878 3.0226,-1.7912 3.994,0.4216 4.8576,-2.318 2.051,-0.106 -0.108,-4.636 -2.6988,-7.27 2.9146,-3.2664 -3.3464,-2.2126 0.5398,-3.793 15.9762,-9.6934 13.4934,-0.4216 4.7496,-3.0554 4.6194,1.8746 1.4256,-1.664 -0.8636,-2.9502 0.6478,-1.2644 2.5906,2.5288 2.5908,-3.793 -0.6476,-2.1074 3.886,0.2108 1.943,1.475 2.159,-4.2144 3.0226,-2.7396 -0.8636,-2.7394 1.943,-2.5286 0,-1.0538 3.886,0 5.3974,4.4254 7.1246,-6.954 6.6926,0.4214 4.318,2.9502 19.8622,1.2644 6.9086,-3.5824 10.5788,0.6322 7.3404,5.4788 6.4768,-1.6858 7.1246,-0.2106 5.3974,-7.5862 2.1588,4.636 3.6702,0.8428 1.7272,-5.2682 3.8862,-1.475 7.1244,0 5.3974,-7.5862 6.045,-1.8966 14.8968,5.6898 2.1588,6.5324 9.9312,6.3218 4.5338,-0.2106 5.0046,-4.499 -0.2464,-4.3382 6.4116,-3.874 0.3054,-8.0464 2.4426,-3.5762 -2.748,-11.3244 2.748,-2.0862 8.8542,-0.298 -2.4426,-5.0662 8.7814,-17.9178 4.591,-0.4328 -0.022,-2.6014 -4.102,-0.2106 -10.147,-9.272 0,-6.322 3.0224,0.843 1.5114,-3.161 -4.102,-1.475 5.3974,-5.6896 -3.0226,-1.2644 -3.4544,0 -2.5906,-5.2682 4.3178,1.8966 -1.7272,-4.636 -6.9086,-1.6858 -2.8066,-7.5862 -1.943,-4.636 -4.102,-2.7394 -3.6702,0 -0.4318,-2.318 -3.2384,-0.4214 -1.7272,-6.5326 -3.4542,-5.0574 -5.6134,-0.843 -1.727,-3.161 1.2954,-5.9002 -3.8862,-5.2682 -11.2264,-0.4216 -4.318,-1.475 2.3748,-2.9502 0.8636,-9.6934 3.4544,-5.479 -3.4544,-7.7968 -6.6926,-3.7932 -4.5338,1.0538 -6.045,-2.9502 -8.3054,-0.3598 -5.7278,5.4172 -3.0226,-0.843 0.216,4.2146 -3.4544,1.4752 -0.2158,4.0038 0,4.636 -5.3974,5.9002 -3.4542,1.4752 -3.6702,8.0076 -2.5908,0.6322 -6.4768,4.636 -0.8636,4.4252 -3.2384,1.6858 -1.943,5.479 -6.9086,2.1072 0,3.3716 -4.9656,0.4216 -3.4544,-2.5288 -1.943,1.0536 -3.8862,0.2108 2.5908,4.0038 -1.0794,1.475 -4.7498,0.843 1.0796,3.3716 -2.159,2.5288 0.8636,1.0536 -0.8636,5.6896 0.2158,3.793 -2.8066,2.318 -0.4318,3.7932 -1.943,5.0574 -3.886,0.6322 -4.5338,3.3716 -1.7272,5.0574 -3.2384,0.6322 -1.0794,3.3718 -3.0226,0 1.2954,5.6896 -4.318,1.6858 -0.8634,2.5286 2.3748,1.4752 -3.6702,2.5288 1.0794,2.7394 -0.4318,3.793 -4.5338,0.4216 -0.8636,4.2144 1.7272,1.8966 c 0,0 -1.943,0.4214 -3.0224,1.0536 -1.0796,0.6322 1.5112,2.5288 1.5112,2.5288 l -4.5338,4.8466 -1.943,5.0576 -2.8066,2.95 -4.318,0.4216 -0.4318,5.4788 -3.6702,-1.2644 -2.1588,2.1074 -1.2954,2.9502 -3.8862,0.2106 -1.943,4.2146 0.8636,3.5824 -5.8292,-1.0536 -2.1588,2.318 -4.318,-2.1074 -3.6702,2.5288 1.5112,2.7394 0,2.9502 -3.4542,0.6322 0,6.5326 -2.3748,5.2682 0,3.1608 -6.9086,1.6858 -1.5114,-2.318 -4.7496,8.6398 1.0794,2.5288 -1.943,3.793 0.4318,2.318 -4.3178,5.1498 -12.088,-1.0634 -2.3966,-0.7242 c 0,0 -3.9692,1.9372 -4.885,1.9372 -0.916,0 -3.3586,-1.7882 -3.3586,-1.7882 l -1.6792,3.4272 -2.5952,-4.0232 -7.4804,4.1722 -1.955,-0.371 z"
            inkscape:connector-curvature="0"
            sodipodi:nodetypes="cccccccccccccccccccccccccccccccccccccccccccccccccccccccccccccccccccccccccccccccccccccccccccccccccccccccccccccccccccccccccccccccccccccccccccccccccccccccccccccccccccccccccccccccccccccccccccccccccccccscccccc" />
        <path
            id="path964"
            style="fill:#cccccc;stroke:none;stroke-width:0.6;stroke-linecap:butt;stroke-linejoin:round;stroke-miterlimit:4;stroke-opacity:1;stroke-dasharray:none;display:inline"
            d="m 1884.5902,4106.9143 -0.4318,5.4788 -3.0224,0.4216 -1.9432,2.9502 -4.5338,0.8428 -1.2952,4.8468 -4.9656,-1.8966 -6.4768,3.161 -2.5908,5.4788 -4.102,1.2644 -0.2158,6.7432 -4.6418,1.6858 4.4258,5.9004 -1.0794,15.383 -4.7498,0.4216 -3.2384,1.6858 0.6478,9.272 -8.6358,4.2144 -0.8636,6.7434 1.5112,2.9502 0.216,5.4788 -5.1814,7.3754 -6.0452,0 -1.5112,-1.0536 -7.5562,2.9502 -5.8292,6.954 -1.7272,10.3256 -4.7496,2.318 1.7272,3.161 -2.8068,5.4788 -5.6132,5.9004 1.0796,2.5288 -2.051,4.952 3.778,6.0058 -2.1588,1.6858 0,5.4788 -2.159,3.7932 2.8066,2.9502 4.3178,-4.0038 1.9432,2.7394 3.5036,2.5002 8.3706,0.45 6.045,2.9502 4.5338,-1.0538 6.6926,3.7932 3.4544,7.7968 -3.4544,5.479 -0.8636,9.6934 -2.3748,2.9502 4.318,1.475 11.2264,0.4216 3.8862,5.2682 -1.2954,5.9002 1.727,3.161 5.6134,0.843 3.4542,5.0574 1.7272,6.5326 3.2384,0.4214 0.4318,2.318 3.6702,0 4.102,2.7394 1.943,4.636 2.8066,7.5862 6.9086,1.6858 1.7272,4.636 -4.3178,-1.8966 2.5906,5.2682 3.4544,0 3.0226,1.2644 -5.3974,5.6896 4.102,1.475 -1.5114,3.161 -3.0224,-0.843 0,6.322 10.147,9.272 4.102,0.2106 0.022,2.6674 11.4756,-5.874 4.2744,-4.4702 2.4426,-7.4504 11.5788,-10.3952 9.5118,-0.6398 4.4982,-5.2124 -3.5822,-6.4102 -2.1374,-7.7484 0,-4.1722 3.0532,-2.682 -1.1276,-7.1612 5.9894,-2.9758 -0.7722,-9.3266 -1.964,-9.15 3.1586,-4.7728 0.3054,-4.7682 5.1904,-8.0462 19.8458,-6.2584 13.4936,-12.2802 6.0468,-12.4548 7.6332,-1.49 7.5106,-6.523 1.3436,-10.464 8.549,-1.788 2.7478,-1.49 5.4958,1.192 4.8852,-2.3842 16.182,0.2982 9.4054,-2.857 1.4204,-6.3418 8.8582,0.5418 6.36,-13.6852 2.401,-12.7826 -9.33,-27.9158 5.8722,-18.3488 12.058,-8.523 6.2148,-11.8852 7.4318,-8.9288 12.0754,-4.8502 4.9804,-6.4842 -2.4902,-4.863 -0.415,-5.2686 -4.9194,-3.0256 -10.6142,1.543 -3.3834,3.432 -3.9926,-2.8518 -4.2776,2.2814 0,8.8408 -6.2742,6.8444 -10.5518,1.1408 -2.5666,3.9926 -2.5668,1.711 -7.9852,-9.1258 -6.274,1.711 -1.7112,4.563 1.7112,8.5556 -6.5592,7.7 -14.5446,0 -15.2444,3.6284 -8.944,4.618 -6.636,8.6588 -8.0786,2.3092 -9.5212,-8.3702 -7.213,-11.834 -11.2522,-8.6588 -2.3082,-4.3294 -12.695,-3.7524 -9.2326,1.4432 -25.2454,-7.383 -5.1932,-4.618 -6.636,-1.1546 -6.3474,3.7524 -2.659,-1.721 z"
            inkscape:connector-curvature="0"
            sodipodi:nodetypes="ccccccccccccccccccccccccccccccccccccccccccccccccccccccccccccccccccccccccccccccccccccccccccccccccccccccccccccccccccccccccccccccccccccccccccccccccccccccc" />
        <path
            sodipodi:nodetypes="cccccccccccccccccccccccccccccccccccccccccccccccccccccccccccccccccccccccccccccccccccccccccccccccccccccccccccccccccccccccscccccccccccccccccccccc"
            inkscape:connector-curvature="0"
            d="m 1618.7548,4533.8157 6.548,-2.0738 3.94,-4.5308 2.9686,-3.0554 2.159,0 3.4542,7.27 4.102,-1.3698 1.4034,2.4234 3.6702,-2.7394 2.3748,0.316 -1.943,3.0556 2.9146,4.0038 3.1304,-0.4214 3.0226,1.8966 2.051,-0.9484 5.5052,4.1092 7.4484,0 10.6868,-6.8486 14.8966,-2.0018 3.6702,0.632 8.4198,-3.793 1.6194,-4.4252 4.4258,-0.2108 -1.5114,-3.2662 -0.8636,-3.6878 -4.8576,-5.795 1.2954,-7.9022 0.216,-6.638 -1.7272,-2.2126 0.6308,-4.3046 -4e-4,0 2.823,2.5224 2.4426,0.148 0.6106,2.5332 3.5112,1.192 -0.3052,4.9172 1.2212,0.298 1.9846,2.6822 4.4272,-4.6192 3.6638,1.49 3.2058,-0.148 1.9846,-3.1292 2.9006,-0.298 0.7632,4.7682 5.8012,10.8774 5.801,0.447 6.4118,-2.98 7.3276,-1.6392 1.832,1.4902 6.4118,0 4.885,-1.4902 3.9692,-0.148 2.5952,2.682 4.8852,-0.148 8.549,-7.3014 6.8696,-11.6224 6.5644,-8.3444 4.1218,2.98 15.266,-1.788 7.9384,6.5562 3.8166,1.7882 6.717,6.4072 0.3052,3.4272 12.384,9.209 -2.5408,3.9386 -0.3052,4.4702 3.3584,4.7682 -3.3584,12.5166 -4.8852,4.7682 4.5798,11.3246 -1.5266,5.6622 2.7478,4.1722 -4.2744,4.7682 1.5266,3.8742 -0.6106,4.1722 -2.4426,1.192 -5.1904,8.3444 0.916,11.9204 8.5488,6.2584 -0.9158,4.1722 -3.0532,3.278 -5.4958,1.1922 -1.832,3.576 -9.465,0.298 -5.801,0.2982 -4.4636,5.7862 -0.6106,8.6424 -11.2968,6.8542 -0.3054,3.8742 2.1372,5.6622 -1.8318,6.8544 -5.7432,8.0504 -8.4544,3.9416 -12.8548,0.599 -7.1038,7.8126 -2.2134,-3.4272 -4.1218,-0.447 -2.9006,-6.8544 -3.9692,-0.596 -3.8166,-7.3012 -15.4186,-4.6192 -2.9006,0 -4.5798,-1.4902 -12.2128,-0.745 -10.3808,4.7682 -4.1218,4.9172 -12.8236,4.0232 -12.8234,-2.384 -5.801,-9.8344 -11.297,-3.2782 -5.6484,-3.2782 -4.2744,-0.745 -1.5266,-3.5762 4.5798,-4.1722 1.8318,-11.6224 4.7326,-2.9802 0.6106,-5.8112 3.3584,-5.2152 -0.152,-4.3212 c 0,0 0.7632,-0.148 0.7632,-1.0432 0,-0.894 -1.2212,-6.1092 -1.2212,-6.1092 l -3.0532,-0.596 -3.3586,1.043 -2.9006,-3.129 -4.885,0.596 -5.9538,-6.5564 -4.8852,-0.596 -4.7324,0.894 -4.4272,-3.129 -0.6106,-2.6822 -1.832,-4.0232 -4.885,0.596 -3.0532,-5.6622 -5.4958,-0.745 -5.4758,-4.447 0.4548,-1.7128 -5.197,-4.7328 4.0322,-9.7884 3.0482,-5.0914 2.598,-8.354 -2.7338,-6.3032 z"
            style="fill:#cccccc;stroke:none;stroke-width:0.6;stroke-linecap:butt;stroke-linejoin:round;stroke-miterlimit:4;stroke-opacity:1;stroke-dasharray:none;display:inline"
            id="path966" />
    </g>
    <g
        inkscape:groupmode="layer"
        id="layer9"
        inkscape:label="Municipios"
        style="display:inline"
        transform="translate(-1461.3782,-4043.884)">
        <path
            sodipodi:nodetypes="cccccccccccccccccccccccccccccccccccccccccccccccccccccccccccccccccccccccccccccccccccccccccsccccccccccccccccccccccccccccccccccccccccccccccccccccccccccccccccccccccccccccccccccccccccccccccccccccccscccccccccccccccccccccccccccccc"
            d="m 1636.337,4469.5837 0.3926,-4.673 -1.5266,-1.192 -3.0532,1.6392 -2.7478,-6.4074 -3.2058,-0.596 1.8318,-3.7252 -0.916,-1.341 3.5112,-4.0232 4.2746,-2.235 3.8164,0 1.0686,-2.8312 2.4426,0 4.7324,-2.8312 -0.3052,-1.49 1.6792,-3.5762 3.5112,-0.148 1.6792,-4.9174 1.5266,-0.894 0,-3.5762 -1.8318,-1.043 0.6106,-3.8742 1.6792,-0.894 -0.152,-2.533 1.9846,-2.0862 0.458,-3.4272 -1.8318,-2.682 2.4424,-1.043 -0.152,-5.6624 -1.5266,-0.298 -3.3586,4.7682 -5.8012,1.9372 -3.8164,0.148 2.4426,-2.235 0.6106,-5.0662 -5.6484,2.235 -7.9384,0.447 1.5266,-2.831 6.717,-2.0862 5.4958,-2.235 1.6794,-4.0232 -1.5266,-5.9602 2.2898,-3.7252 0.152,-3.7252 -3.2058,1.49 -1.0686,-2.235 -2.5954,-0.596 0.916,-3.8742 7.9384,-4.9172 11.9074,-0.148 7.9384,-5.6622 1.9846,-4.0232 3.3586,-2.2352 -6.8698,-1.192 -5.0378,1.7882 -5.343,-0.2982 -4.4272,1.6392 -7.9384,-0.894 -6.5644,2.384 -1.2212,-1.788 -3.206,0 -3.0532,3.7252 -2.2898,-0.5962 -1.374,3.5762 -5.1904,0 -1.6792,1.7882 -3.664,0.447 -1.9844,2.235 -6.9662,-0.9218 0.7038,-3.6104 5.6132,1.4752 9.7154,-4.0038 -1.2954,-4.004 -4.318,0.2108 2.3748,-5.0574 6.0452,-6.3218 -1.9432,-3.7932 4.102,-4.4252 -1.2952,-4.4252 7.772,-10.7472 3.4544,-3.1608 1.7272,-10.7472 2.3748,-2.318 -0.6476,-3.1608 6.9086,-6.7434 6.045,-0.8428 2.3748,2.318 4.102,-1.0536 2.5908,-4.2146 c 0,0 5.829,5.479 7.1244,5.479 1.2954,0 1.2954,-2.318 1.2954,-2.318 l 3.92,-0.108 4.9342,0.822 0.6106,1.192 2.29,-0.148 -0.916,-2.682 6.8698,-4.0232 1.0686,3.7252 2.1372,-3.5762 2.5952,0.447 3.2058,-1.788 3.206,2.086 3.8164,-3.2782 3.9692,2.2352 0.7634,-5.0662 2.7478,-0.298 2.1372,-1.1922 1.832,3.8742 3.2058,-0.447 -0.7632,-3.4272 2.5952,0.596 2.5952,-2.831 6.259,-2.2352 3.0532,2.2352 2.1372,-1.341 3.206,3.278 4.885,-1.341 3.3586,1.49 2.2898,-1.937 3.206,0.148 7.175,-4.0232 2.2898,-4.6192 5.6486,-4.3212 1.8318,-4.3212 -2.4426,-1.7882 0.458,-2.086 3.664,-1.49 -0.458,-2.2352 2.5952,-1.937 0.458,-3.4272 3.0532,-0.447 1.5266,-2.5332 7.9382,0 3.3586,-4.1722 3.6638,-0.148 0.152,-5.0662 1.5174,-2.0398 3.732,5.9858 -2.1588,1.6858 0,5.4788 -2.159,3.7932 2.8066,2.9502 4.3178,-4.004 1.9432,2.7396 3.6128,2.5834 -5.7718,5.4242 -3.0226,-0.843 0.216,4.2146 -3.4544,1.4752 -0.2158,4.0038 0,4.636 -5.3974,5.9002 -3.4542,1.4752 -3.6702,8.0076 -2.5908,0.6322 -6.4768,4.636 -0.8636,4.4252 -3.2384,1.6858 -1.943,5.479 -6.9086,2.1072 0,3.3716 -4.9656,0.4216 -3.4544,-2.5288 -1.943,1.0536 -3.8862,0.2108 2.5908,4.0038 -1.0794,1.475 -4.7498,0.843 1.0796,3.3716 -2.159,2.5288 0.8636,1.0536 -0.8636,5.6896 0.2158,3.793 -2.8066,2.318 -0.4318,3.7932 -1.943,5.0574 -3.886,0.6322 -4.5338,3.3716 -1.7272,5.0574 -3.2384,0.6322 -1.0794,3.3716 -3.0226,0 1.2954,5.6898 -4.318,1.6858 -0.8634,2.5286 2.3748,1.4752 -3.6702,2.5286 1.0794,2.7396 -0.4318,3.793 -4.5338,0.4214 -0.8636,4.2146 1.7272,1.8966 c 0,0 -1.943,0.4214 -3.0224,1.0536 -1.0796,0.6322 1.5112,2.5288 1.5112,2.5288 l -4.5338,4.8466 -1.943,5.0574 -2.8066,2.9502 -4.318,0.4216 -0.4318,5.4788 -3.6702,-1.2644 -2.1588,2.1074 -1.2954,2.9502 -3.8862,0.2106 -1.943,4.2146 0.8636,3.5824 -5.8292,-1.0536 -2.1588,2.318 -4.318,-2.1074 -3.6702,2.5288 1.5112,2.7394 0,2.9502 -3.4542,0.6322 0,6.5326 -2.3748,5.268 0,3.161 -6.9086,1.6858 -1.5114,-2.318 -4.7496,8.6398 1.0794,2.5288 -1.943,3.793 0.4318,2.318 -4.3178,5.2682 -12.282,-1.2562 z"
            style="fill:none;stroke:#646464;stroke-width:0.6;stroke-linecap:butt;stroke-linejoin:round;stroke-miterlimit:4;stroke-opacity:1;stroke-dasharray:none"
            id="path3260"
            inkscape:connector-curvature="0" />
        <path
            sodipodi:nodetypes="cccccccccccccccccccccccccccccccccccccccccccccccccccccccccccccccccccccccccccccccccccccccccccccccccccccccccccccccccccccccccccccccccc"
            d="m 1798.2504,4241.0423 -1.3802,1.8488 -0.152,5.0662 -3.6638,0.148 -3.3586,4.1722 -7.9382,0 -1.5266,2.5332 -3.0532,0.447 -0.458,3.4272 -2.5952,1.937 0.458,2.2352 -3.664,1.49 -0.458,2.086 2.4426,1.7882 -1.8318,4.3212 -5.6486,4.3212 -2.2898,4.6192 -7.175,4.0232 -3.206,-0.15 -2.2898,1.937 -3.3586,-1.49 -4.885,1.341 -3.206,-3.278 -2.1372,1.341 -3.0532,-2.2352 -6.259,2.2352 -2.5952,2.8312 -2.5952,-0.5962 0.7632,3.4272 -3.2058,0.447 -1.832,-3.8742 -2.1372,1.1922 -2.7478,0.298 -0.7634,5.0662 -3.9692,-2.2352 -3.8164,3.2782 -3.206,-2.086 -3.2058,1.788 -2.5952,-0.447 -2.1372,3.5762 -1.0686,-3.7252 -6.8698,4.0232 0.916,2.682 -2.29,0.148 -0.6106,-1.192 -5.1904,-0.894 2.9006,-3.8742 6.259,-1.4902 3.8164,-3.278 4.4272,1.192 0.916,-1.639 7.0224,-1.9372 0,-2.682 -3.8166,0.447 2.4426,-4.0232 -5.0378,1.49 0.3054,-10.1324 2.1372,-1.7882 -0.916,-2.384 4.4272,-3.7252 3.0532,1.341 1.6792,-0.596 -2.7478,-3.278 -7.9384,-2.5332 -1.374,0.894 -2.1372,0 -3.5112,-4.3212 0.458,-2.682 -4.7324,-5.1408 0.458,-2.4586 1.9846,0 2.4426,-2.235 -1.5266,-5.6624 1.3738,-2.533 2.748,4.3212 4.885,0.148 0,-1.937 3.5112,-0.15 1.9846,-2.533 7.175,1.341 0.6108,-7.5994 3.8164,0.7452 4.4272,-3.8742 0.3052,-3.8742 6.1958,-3.3054 2.6988,-0.9386 3.2566,1.6308 0.2158,-3.5824 7.7722,-9.4826 3.6702,-0.4216 5.6132,-2.7394 8.6358,-7.1646 -0.8636,-5.0576 3.6702,-0.8428 12.7378,-19.5976 8.8516,-6.1112 3.4544,0 2.8066,-5.4788 3.4542,-0.4216 3.6702,-5.268 7.3404,3.3716 1.9432,1.6858 13.1694,-3.161 3.2384,-4.4252 3.8862,0 13.1696,-7.5862 0,-4.8468 3.2384,-1.8964 8.3928,1.0272 4.345,5.9268 -1.0796,15.383 -4.7496,0.4214 -3.2384,1.6858 0.6476,9.272 -8.6358,4.2146 -0.8636,6.7432 1.5114,2.9502 0.2158,5.479 -5.1814,7.3754 -6.045,0 -1.5114,-1.0536 -7.5562,2.9502 -5.8292,6.954 -1.7272,10.3256 -4.7496,2.318 1.7272,3.1608 -2.8066,5.479 -5.6134,5.9004 1.0796,2.5286 -2.1422,5.1632 z"
            style="fill:none;stroke:#646464;stroke-width:0.6;stroke-linecap:butt;stroke-linejoin:round;stroke-miterlimit:4;stroke-opacity:1;stroke-dasharray:none"
            id="path3256-4"
            inkscape:connector-curvature="0" />
        <path
            sodipodi:nodetypes="cccccccccccccccccccccccccccccccccccccccccccccccccccccc"
            d="m 1708.3294,4491.4629 -1.527,-3.6594 -3.4544,-2.7394 -1.835,-9.5882 1.1874,-3.6876 -1.0794,-8.5346 -2.3748,-1.0536 -1.7812,-3.319 -4.8036,-1.9492 -4.7498,3.0556 -13.4934,0.4214 -15.976,9.6934 -0.5398,3.7932 3.3464,2.2126 -2.9146,3.2662 2.6986,7.2702 0.108,4.636 -2.051,0.106 -4.8578,2.318 -3.994,-0.4214 -3.0224,1.7912 -2.267,3.6878 -5.829,4.6358 -5.5054,0 -2.5908,1.3698 -3.3462,16.7528 1.2414,6.1112 3.2922,-3.477 2.159,0 3.4544,7.27 4.102,-1.3698 1.4032,2.4234 3.6702,-2.7394 2.3748,0.316 -1.943,3.0556 2.9146,4.0038 3.1304,-0.4214 3.0226,1.8966 2.051,-0.9484 5.5052,4.1092 7.4484,0 10.6868,-6.8486 14.8966,-2.002 3.6702,0.6322 8.42,-3.793 1.6192,-4.4252 4.4258,-0.2108 -1.5112,-3.2662 -0.8636,-3.6878 -4.8576,-5.795 1.2954,-7.9022 0.2158,-6.638 -1.7272,-2.2126 0.5556,-4.1374 z"
            style="fill:none;stroke:#646464;stroke-width:0.6;stroke-linecap:butt;stroke-linejoin:round;stroke-miterlimit:4;stroke-opacity:1;stroke-dasharray:none"
            id="path3284"
            inkscape:connector-curvature="0" />
        <path
            sodipodi:nodetypes="cccccccccccccccccccccccccccccccccccccccccccccccccccccccccccccccccccccccccccccccccccccccccccccccccccccccccccccccc"
            inkscape:connector-curvature="0"
            d="m 1883.9218,4102.4007 -3.7508,-1.7318 -4.0392,-5.484 -8.9442,0.2886 -9.8096,5.7726 -5.1934,0 -6.059,-8.0818 -6.636,2.0206 -7.0686,9.212 -7.79,-0.289 -6.9246,-3.4634 -7.79,2.0204 -10.6752,-3.4636 -5.7704,-4.618 -2.8852,2.5976 -5.7704,1.1546 0,4.3294 -5.482,5.7728 -6.3474,-5.484 -7.5014,-0.5772 0.2884,-3.4638 -3.1736,-2.5976 -6.059,0 -2.0196,-4.041 -5.1934,-3.752 -6.059,-0.2886 -4.5548,-4.5596 -6.602,0 -3.546,2.3168 -7.2964,2.6878 -5.6204,-0.8344 -1.6346,0.9578 5.9954,4.7542 -2.5802,15.9964 4.2278,12.754 -2.0594,8.2142 6.9238,11.4626 -1.4604,11.6444 -5.0822,5.75 -8.2374,1.6428 -14.8278,-0.8214 -13.1802,-4.1072 -7.1556,1.505 3.1298,9.5852 3.2384,0.2106 1.5114,15.1724 -1.5114,8.0076 -3.6702,1.0536 -4.1018,6.7434 -1.9432,0.8428 0,5.479 -2.5906,1.475 8.8516,4.8468 2.8066,0.6322 1.5112,3.1608 3.4544,0.6322 1.943,2.1074 3.2384,0.632 1.2954,-3.793 7.5564,-3.3716 2.8066,-0.4214 6.6926,-3.5824 3.2384,-7.797 2.159,0.843 3.6702,-1.4752 2.3748,0.6322 -0.6476,4.636 0.4318,2.1074 -4.102,2.95 3.4542,1.8966 1.0796,-1.2644 5.6132,-0.2106 -1.7272,3.5824 1.7272,2.5286 -2.051,4.1092 3.1122,-1.3148 3.2566,1.631 0.216,-3.5824 7.7722,-9.4828 3.6702,-0.4214 5.6132,-2.7394 8.6358,-7.1648 -0.8636,-5.0574 3.6702,-0.843 12.7378,-19.5976 8.8516,-6.111 3.4542,0 2.8068,-5.479 3.4542,-0.4214 3.6702,-5.2682 7.3404,3.3716 1.943,1.6858 13.1696,-3.1608 3.2384,-4.4254 3.8862,0 13.1694,-7.586 0,-4.8468 3.2384,-1.8966 8.1252,1.0102 4.8286,-1.6424 0.2158,-6.7432 4.102,-1.2644 2.5908,-5.4788 6.4768,-3.161 4.9656,1.8966 1.2952,-4.8468 4.5338,-0.8428 1.9432,-2.9502 3.0224,-0.4216 0.4318,-5.4788 5.6186,-4.7752 z"
            style="fill:none;stroke:#646464;stroke-width:0.6;stroke-linecap:butt;stroke-linejoin:round;stroke-miterlimit:4;stroke-opacity:1;stroke-dasharray:none;display:inline"
            id="path6538" />
        <path
            sodipodi:nodetypes="cccccccccccccccccccccccccccccccccccccccccccccccccccccccccccccccccccccccccccccccccccccccccccccccccccccccccccccccccccccccccccccccccccccccccccccccc"
            inkscape:connector-curvature="0"
            d="m 1675.4956,4157.7347 -5.7662,4.9288 -11.5328,1.6428 -9.0614,-7.393 -6.5902,0 -13.18,-4.9286 -5.7664,0 -13.1802,4.9286 -9.0614,0 -6.5902,-7.3928 -4.9424,0 -9.1084,-2.8118 -3.542,6.6228 0,6.9702 -11.0672,13.9402 -13.3972,5.2276 -3.495,4.6468 0.5824,6.1212 -4.0774,0.5808 -1.7474,9.8744 -4.9382,8.2658 -5.6852,-0.094 -4.5614,8.1202 8.2376,9.0358 -2.412,0.725 4.9426,5.7502 -9.0614,2.4642 -1.6474,4.1072 -6.5902,5.75 4.1188,4.1072 2.5952,0.7276 1.1224,-2.1834 1.943,2.9502 2.375,0 3.0224,1.475 2.159,-1.0536 2.159,2.5286 0.2158,-2.95 3.2384,0.632 1.7272,2.7396 0,2.9502 2.5908,1.475 0,3.161 2.3748,-2.1074 -0.216,-2.318 2.5908,1.2644 0,2.5288 2.159,0.2106 0.8636,-3.5822 3.0224,-2.1074 3.2384,2.318 -2.8066,2.318 0.8636,2.7394 3.4542,-2.95 1.7272,4.0038 3.4544,-3.3718 2.3748,3.5824 3.886,0.2108 4.5338,-1.6858 0.216,-1.2644 5.1814,1.2644 4.102,-2.318 1.2954,-1.8966 5.6132,0.843 4.5338,3.5822 6.045,1.6858 0.216,2.7396 5.6132,-0.843 0.6476,2.318 9.9312,1.8966 0.6476,-1.0536 4.5338,2.5286 0.216,-2.9502 2.5906,-0.4214 3.0226,-2.7394 2.8066,3.5824 4.102,-0.843 0,-3.5824 1.943,-0.6322 1.0796,1.4752 6.6926,-0.843 0.8636,-1.0536 6.261,-3.5824 0.6476,2.5288 7.5564,2.7394 1.5112,-3.1608 1.7272,0.2106 2.5906,-4.2144 0,-2.7396 3.4544,-3.5822 1.943,5.0574 3.4544,-0.2108 0.2158,-5.2682 3.692,-3.0098 0.5064,-2.3558 1.9846,0 2.4426,-2.235 -1.5266,-5.6622 1.374,-2.5332 2.7478,4.3212 4.8852,0.148 0,-1.9372 3.5112,-0.148 1.9846,-2.5332 7.175,1.3412 0.6106,-7.5994 3.8166,0.745 4.427,-3.8742 0.3054,-3.8742 5.957,-3.0924 0,10e-4 1.8762,-3.946 -1.7272,-2.5288 1.7272,-3.5822 -5.6132,0.2106 -1.0796,1.2644 -3.4542,-1.8966 4.102,-2.9502 -0.4318,-2.1072 0.6476,-4.636 -2.3748,-0.6322 -3.6702,1.4752 -2.159,-0.843 -3.2384,7.797 -6.6926,3.5822 -2.8066,0.4216 -7.5564,3.3716 -1.2954,3.793 -3.2384,-0.6322 -1.943,-2.1072 -3.4544,-0.6322 -1.5112,-3.1608 -2.8066,-0.6322 -8.8516,-4.8468 2.5906,-1.475 0,-5.479 1.9432,-0.8428 4.1018,-6.7434 3.6702,-1.0536 1.5114,-8.0076 -1.5114,-15.1724 -3.2384,-0.2106 -3.0338,-9.6532 z"
            style="fill:none;stroke:#646464;stroke-width:0.6;stroke-linecap:butt;stroke-linejoin:round;stroke-miterlimit:4;stroke-opacity:1;stroke-dasharray:none;display:inline"
            id="path6633" />
        <path
            id="path6645"
            style="fill:none;stroke:#646464;stroke-width:0.6;stroke-linecap:butt;stroke-linejoin:round;stroke-miterlimit:4;stroke-opacity:1;stroke-dasharray:none;display:inline"
            d="m 1525.5924,4393.0967 1.8318,-2.831 2.748,0 2.1372,-0.8942 3.8166,3.1292 1.8318,-1.341 4.2746,2.533 1.5266,-0.447 -0.3054,4.1722 5.1904,0 0.6106,-0.596 1.5268,0.596 -0.3054,2.0862 2.5952,0 1.0686,1.937 0.916,-2.086 3.5112,1.341 1.2212,2.831 1.832,-1.043 1.5266,2.0862 1.9846,-2.0862 1.6792,0.894 c 0,0 4.5798,0.148 5.1904,0.148 0.6108,0 2.5952,0.298 2.5952,0.298 l 6.7172,-1.341 2.1372,0.148 -0.152,-4.1722 c 0,0 3.3586,0 3.9692,0.298 0.6106,0.298 1.2212,1.639 1.2212,1.639 l 1.0686,-0.15 -0.458,-2.533 1.6794,-0.596 1.2212,-2.6822 2.9006,0 0.916,-2.086 -1.9846,-1.9372 0.3052,-0.596 2.5952,0 1.5266,-2.235 3.0532,0.447 -1.5266,-4.6192 1.0688,-0.894 -1.5266,-1.3412 3.0532,-2.533 2.9004,0 -1.6792,-2.8312 3.3586,-1.788 3.3584,0 -0.3534,-3.2194 0.6556,-3.846 5.6132,1.4752 9.7152,-4.0038 -1.2954,-4.004 -4.3178,0.2108 2.3748,-5.0574 6.045,-6.3218 -1.943,-3.7932 4.102,-4.4252 -1.2954,-4.4252 7.7722,-10.7472 3.4544,-3.1608 1.727,-10.7472 2.375,-2.318 -0.6478,-3.1608 6.9086,-6.7434 6.045,-0.8428 2.375,2.318 4.102,-1.0536 2.5906,-4.2146 c 0,0 5.8292,5.479 7.1246,5.479 1.2954,0 1.2954,-2.318 1.2954,-2.318 l 3.5766,-0.132 2.9876,-3.9226 6.2592,-1.49 3.8164,-3.2782 4.4272,1.192 0.916,-1.639 7.0224,-1.937 0,-2.6822 -3.8166,0.447 2.4426,-4.0232 -5.0378,1.4902 0.3052,-10.1326 2.1374,-1.788 -0.916,-2.3842 4.4272,-3.725 3.0532,1.341 1.6792,-0.596 -2.748,-3.2782 -7.9382,-2.5332 -1.374,0.8942 -2.1372,0 -3.5112,-4.3212 0.458,-2.6822 -4.7754,-5.2188 -6e-4,0 -3.6976,2.985 -0.216,5.2682 -3.4542,0.2106 -1.9432,-5.0574 -3.4542,3.5824 0,2.7394 -2.5908,4.2146 -1.727,-0.2108 -1.5114,3.161 -7.5562,-2.7394 -0.6478,-2.5288 -6.2608,3.5824 -0.8636,1.0536 -6.6928,0.8428 -1.0794,-1.475 -1.943,0.6322 0,3.5824 -4.102,0.8428 -2.8066,-3.5824 -3.0226,2.7396 -2.5908,0.4214 -0.2158,2.9502 -4.5338,-2.5288 -0.6476,1.0536 -9.9312,-1.8964 -0.6476,-2.318 -5.6134,0.8428 -0.2158,-2.7394 -6.045,-1.6858 -4.5338,-3.5824 -5.6134,-0.8428 -1.2952,1.8964 -4.102,2.318 -5.1816,-1.2644 -0.2158,1.2644 -4.5338,1.6858 -3.886,-0.2106 -2.375,-3.5824 -3.4542,3.3716 -1.7272,-4.0038 -3.4542,2.9502 -0.8636,-2.7394 2.8066,-2.318 -3.2384,-2.318 -3.0226,2.1072 -0.8636,3.5824 -2.1588,-0.2108 0,-2.5286 -2.5908,-1.2644 0.2158,2.318 -2.3748,2.1072 0,-3.1608 -2.5906,-1.4752 0,-2.9502 -1.7272,-2.7394 -3.2384,-0.6322 -0.216,2.9502 -2.1588,-2.5288 -2.159,1.0536 -3.0226,-1.475 -2.3748,0 -1.943,-2.9502 -1.1976,2.5202 0.7758,4.6816 7.4138,3.2856 -4.9426,3.2858 0,4.9286 -4.1188,0 0,4.9286 -10.709,5.75 6.2004,6.4436 6.0178,5.6804 -3.495,3.485 -4.0774,-1.7424 -5.2424,4.0658 0,8.7126 -4.0774,6.9702 6.9898,-1.7426 1.165,2.3234 5.2424,1.7426 -4.6598,4.6466 6.4074,2.9042 -0.5826,4.6468 -2.9124,1.7426 3.495,7.551 -4.9246,4.6466 2.1842,7.551 -6.8442,1.1618 0,5.8084 -4.6598,7.551 5.8248,3.485 4.0774,0 2.9126,4.6468 -2.9126,2.3232 -1.165,5.2276 -9.9022,5.2276 4.66,1.7426 0,8.1318 9.4836,4.0666 z"
            inkscape:connector-curvature="0"
            sodipodi:nodetypes="ccccccccccccccccccccccsccccscccccccccccccccccccccccccccccccccccccccccscccccccccccccccccccccccccccccccccccccccccccccccccccccccccccccccccccccccccccccccccccccccccccccccccccccccccccccccccccccccccccccc" />
        <path
            id="path6626"
            style="fill:none;stroke:#646464;stroke-width:0.6;stroke-linecap:butt;stroke-linejoin:round;stroke-miterlimit:4;stroke-opacity:1;stroke-dasharray:none;display:inline"
            d="m 1614.1358,4472.6633 7.4804,-4.1722 2.5952,4.0232 1.6792,-3.4272 c 0,0 2.4426,1.788 3.3586,1.788 0.9158,0 4.885,-1.937 4.885,-1.937 l 2.2574,0.7022 2e-4,0 0.3378,-4.7256 -1.5266,-1.192 -3.0532,1.6392 -2.7478,-6.4074 -3.2058,-0.596 1.8318,-3.7252 -0.916,-1.341 3.5112,-4.0232 4.2746,-2.235 3.8164,0 1.0686,-2.8312 2.4426,0 4.7324,-2.8312 -0.3052,-1.49 1.6792,-3.5762 3.5112,-0.148 1.6792,-4.9174 1.5266,-0.894 0,-3.5762 -1.8318,-1.043 0.6106,-3.8742 1.6792,-0.894 -0.152,-2.533 1.9846,-2.0862 0.458,-3.4272 -1.8318,-2.682 2.4424,-1.043 -0.152,-5.6624 -1.5266,-0.298 -3.3586,4.7682 -5.8012,1.9372 -3.8164,0.148 2.4426,-2.235 0.6106,-5.0662 -5.6484,2.235 -7.9384,0.447 1.5266,-2.831 6.717,-2.0862 5.4958,-2.235 1.6794,-4.0232 -1.5266,-5.9602 2.2898,-3.7252 0.152,-3.7252 -3.2058,1.49 -1.0686,-2.235 -2.5954,-0.596 0.916,-3.8742 7.9384,-4.9172 11.9074,-0.148 7.9384,-5.6622 1.9846,-4.0232 3.3586,-2.2352 -6.8698,-1.192 -5.0378,1.7882 -5.343,-0.2982 -4.4272,1.6392 -7.9384,-0.894 -6.5644,2.384 -1.2212,-1.788 -3.206,0 -3.0532,3.7252 -2.2898,-0.5962 -1.374,3.5762 -5.1904,0 -1.6792,1.7882 -3.664,0.447 -1.9844,2.235 -6.9316,-0.9476 0.3672,3.4808 -3.3586,0 -3.3586,1.788 1.6794,2.8312 -2.9006,0 -3.0532,2.533 1.5266,1.3412 -1.0686,0.894 1.5266,4.6192 -3.0532,-0.447 -1.5266,2.235 -2.5952,0 -0.3054,0.596 1.9846,1.9372 -0.916,2.086 -2.9006,0 -1.2212,2.6822 -1.6792,0.596 0.458,2.533 -1.0686,0.15 c 0,0 -0.6108,-1.341 -1.2214,-1.639 -0.6106,-0.298 -3.9692,-0.298 -3.9692,-0.298 l 0.152,4.1722 -2.1372,-0.148 -6.717,1.341 c 0,0 -1.9846,-0.298 -2.5952,-0.298 -0.6108,0 -5.1906,-0.148 -5.1906,-0.148 l -1.6792,-0.894 -1.9846,2.0862 -1.5266,-2.0862 -1.8318,1.043 -1.2214,-2.831 -3.5112,-1.341 -0.916,2.086 -1.0686,-1.937 -2.5952,0 0.3054,-2.0862 -1.5266,-0.596 -0.6106,0.596 -5.1906,0 0.3054,-4.1722 -1.5266,0.447 -4.2744,-2.533 -1.832,1.341 -3.8166,-3.1292 -2.1372,0.8942 -2.7478,0 -1.832,2.831 1.2714,2.7946 2.9858,1.1216 -5.8248,6.3892 -4.66,0 -5.8248,4.6468 -9.3198,0 6.4074,5.8084 -6.99,2.9042 2.9126,11.0362 -7.2812,3.6902 -3.2036,2.699 6.9898,3.485 -7.698,4.8972 1.2906,3.2346 11.0672,2.9042 1.7476,-1.7424 1.7474,3.485 13.3972,0.5808 3.495,1.1618 1.7474,-3.4852 2.9124,0 8.155,-4.0658 4.0774,6.97 7.135,2.9232 4.8772,-1.5712 4.6598,0 3.1326,9.1032 6.9898,-3.485 2.33,-6.3892 5.8248,5.2274 1.9936,3.7036 4.137,-2.5042 1.4418,6.7558 7.171,-4.0288 2.9124,2.3234 7.5724,2.3234 7.0896,6.2814 z"
            inkscape:connector-curvature="0"
            sodipodi:nodetypes="ccccscccccccccccccccccccccccccccccccccccccccccccccccccccccccccccccccccccccccccccccccccccccccccccsccccscccccccccccccccccccccccccccccccccccccccccccccccccccccccccccc" />
        <path
            sodipodi:nodetypes="ccccccccccccccccccccccccscccccccccccccccccccccccccccccccccccccccccccccccccccccccccccccccccccccccccccccccccccccccccccccccccccccccc"
            inkscape:connector-curvature="0"
            d="m 1777.329,4673.6689 -4.1218,-0.447 -2.9006,-6.8542 -3.969,-0.596 -3.8166,-7.3014 -15.4186,-4.6192 -2.9006,0 -4.5798,-1.49 -12.2128,-0.7452 -10.381,4.7684 -4.1218,4.9172 -12.8234,4.0232 -12.8234,-2.3842 -5.8012,-9.8344 -11.2968,-3.2782 -5.6484,-3.2782 -4.2746,-0.745 -1.5266,-3.5762 4.5798,-4.1722 1.832,-11.6224 4.7324,-2.9802 0.6108,-5.8112 3.3584,-5.2152 -0.152,-4.3212 c 0,0 0.7634,-0.148 0.7634,-1.043 0,-0.894 -1.2214,-6.1094 -1.2214,-6.1094 l -3.0532,-0.596 -3.3584,1.043 -2.9006,-3.129 -4.8852,0.596 -5.9536,-6.5564 -4.8852,-0.596 -4.7324,0.894 -4.4272,-3.129 -0.6106,-2.6822 -1.832,-4.0232 -4.8852,0.596 -3.0532,-5.6622 -5.4958,-0.745 -5.4956,-4.3956 -1.8546,4.6268 7.5724,2.3234 -1.5212,4.3932 4.0774,4.0658 -1.1652,2.9042 -1.7474,1.7426 -1.7472,5.8084 -2.9126,2.3234 -0.5824,9.8744 -4.66,2.9042 0,5.8084 -3.3492,8.5674 -2e-4,2e-4 -8.3004,5.9536 0,8.4222 -4.9512,9.2936 -5.2424,2.0328 -0.2912,6.099 -1.7474,0.5808 0.2912,2.9042 1.7474,2.9042 -8.1118,6.6152 -3.0482,12.9434 4.3696,7.9778 4.1912,5.482 -3.2256,11.7066 -4.9512,5.518 -13.3972,26.4284 -0.5824,6.3892 -6.99,7.551 0.8738,9.8742 2.6212,2.033 -1.165,3.1946 -1.7474,0.2906 -1.4564,3.485 4.0776,9.5838 -3.7862,3.4852 5.8248,12.488 5.825,0.8714 0,8.1318 -7.5724,6.0988 0.5824,8.1318 5.5336,-0.2904 1.7476,-2.3234 9.9022,0 14.5622,7.551 11.941,1.1616 9.6112,5.8084 10.776,0.581 0,-3.7756 4.9512,4.066 0.9234,9.056 2.4712,4.9286 21.4178,-1.6428 11.951,2.9378 4.5778,-8.0198 -2.4732,-5.6862 3.5304,-10.9042 6.4974,-5.379 10.863,-0.8142 0.8356,-6.5134 -5.0138,-7.3274 4.1782,-4.0708 8.3564,4.885 6.4804,-0.4942 3.3426,0 -0.8354,-9.6894 4.6042,-6.62 8.1344,-3.5504 3.3938,4.0708 4.1782,-7.3276 9.1406,-0.814 2.4956,-6.5254 -1.7272,-9.9042 0.2158,-6.5326 4.7498,-6.7432 -3.0226,-6.954 3.5454,-6.4728 7.2494,-3.6422 6.4768,-11.3792 8.204,-4.2146 4.3178,-9.4828 0.216,-5.4788 9.931,-2.5288 5.5446,-6.3482 -0.034,-12.0902 -6.3738,-2.2912 -1.2494,-6.4768 z"
            style="fill:none;stroke:#646464;stroke-width:0.6;stroke-linecap:butt;stroke-linejoin:round;stroke-miterlimit:4;stroke-opacity:1;stroke-dasharray:none;display:inline"
            id="path6559" />
        <path
            sodipodi:nodetypes="cccccccccccccccccccccccccccccccccccccccccccccccccccccccccccccccccccccccccccccccccccccccccc"
            inkscape:connector-curvature="0"
            d="m 1872.804,4436.2423 -5.0526,4.4636 -4.5336,0.2108 -9.9312,-6.3218 -2.159,-6.5326 -14.8966,-5.6896 -6.0452,1.8966 -5.3972,7.5862 -7.1246,0 -3.886,1.475 -1.7272,5.2682 -3.6702,-0.843 -2.159,-4.636 -5.3972,7.5862 -7.1246,0.2108 -6.4768,1.6858 -7.3404,-5.4788 -10.5788,-0.6322 -6.9086,3.5822 -19.8624,-1.2642 -4.3178,-2.9502 -6.6928,-0.4216 -7.1244,6.954 -5.3974,-4.4252 -3.886,0 0,1.0536 -1.9432,2.5288 0.8636,2.7394 -3.0224,2.7394 -2.159,4.2146 -1.943,-1.475 -3.8862,-0.2108 0.6478,2.1072 -2.5908,3.7932 -2.5908,-2.5288 -0.6476,1.2644 0.8636,2.9502 -1.3494,1.5278 1.8892,3.5296 2.3748,1.0536 1.0794,8.5346 -1.1874,3.6876 1.835,9.5882 3.4544,2.7394 1.4008,3.343 3.0246,2.6716 2.4426,0.148 0.6106,2.5332 3.5112,1.192 -0.3052,4.9172 1.2212,0.298 1.9846,2.6822 4.4272,-4.6192 3.6638,1.49 3.2058,-0.148 1.9846,-3.1292 2.9006,-0.298 0.7632,4.7682 5.8012,10.8774 5.801,0.447 6.4118,-2.98 7.3276,-1.6392 1.832,1.4902 6.4118,0 4.885,-1.4902 3.9692,-0.148 2.5952,2.682 4.8852,-0.148 8.549,-7.3014 6.8696,-11.6224 6.5644,-8.3444 4.1218,2.98 15.266,-1.788 7.9384,6.5562 3.8166,1.7882 6.717,6.4072 0.3052,3.4272 12.378,9.1924 4.793,-3.793 -0.6108,-10.1326 -1.8318,-5.0662 3.0532,-5.0662 7.9382,-10.1324 -0.6106,-6.5564 5.1904,-14.9006 -3.969,-5.6622 2.1372,-2.086 0,-7.1524 -3.0532,-4.3212 z"
            style="fill:none;stroke:#646464;stroke-width:0.6;stroke-linecap:butt;stroke-linejoin:round;stroke-miterlimit:4;stroke-opacity:1;stroke-dasharray:none;display:inline"
            id="path6549" />
        <path
            sodipodi:nodetypes="cccccccccccccccccccccccccccccccccccccccccccccccccccccccccccccccccccccccccccccccccccccccccccccccccccccccccccccccccccccccccccccccccccccccccccccccccccccccccccccccccccccccccccccccccccccccccccccccccccccscccccc"
            inkscape:connector-curvature="0"
            d="m 1611.0054,4476.2921 -4.4932,2.2934 -0.622,9.4546 -3.5702,3.8446 4.7354,3.4114 0.5822,6.97 3.495,3.4852 2.9126,-0.581 4.6598,3.4852 -2.9124,7.551 6.99,3.485 1.7472,4.0658 -7.5722,4.6468 1.8564,5.4464 6.4888,-2.1104 3.6434,-4.1886 -1.2686,-6.0316 3.3464,-16.753 2.5906,-1.3696 5.5054,0 5.8292,-4.636 2.2668,-3.6878 3.0226,-1.7912 3.994,0.4216 4.8576,-2.318 2.051,-0.106 -0.108,-4.636 -2.6988,-7.27 2.9146,-3.2664 -3.3464,-2.2126 0.5398,-3.793 15.9762,-9.6934 13.4934,-0.4216 4.7496,-3.0554 4.6194,1.8746 1.4256,-1.664 -0.8636,-2.9502 0.6478,-1.2644 2.5906,2.5288 2.5908,-3.793 -0.6476,-2.1074 3.886,0.2108 1.943,1.475 2.159,-4.2144 3.0226,-2.7396 -0.8636,-2.7394 1.943,-2.5286 0,-1.0538 3.886,0 5.3974,4.4254 7.1246,-6.954 6.6926,0.4214 4.318,2.9502 19.8622,1.2644 6.9086,-3.5824 10.5788,0.6322 7.3404,5.4788 6.4768,-1.6858 7.1246,-0.2106 5.3974,-7.5862 2.1588,4.636 3.6702,0.8428 1.7272,-5.2682 3.8862,-1.475 7.1244,0 5.3974,-7.5862 6.045,-1.8966 14.8968,5.6898 2.1588,6.5324 9.9312,6.3218 4.5338,-0.2106 5.0046,-4.499 -0.2464,-4.3382 6.4116,-3.874 0.3054,-8.0464 2.4426,-3.5762 -2.748,-11.3244 2.748,-2.0862 8.8542,-0.298 -2.4426,-5.0662 8.7814,-17.9178 4.591,-0.4328 -0.022,-2.6014 -4.102,-0.2106 -10.147,-9.272 0,-6.322 3.0224,0.843 1.5114,-3.161 -4.102,-1.475 5.3974,-5.6896 -3.0226,-1.2644 -3.4544,0 -2.5906,-5.2682 4.3178,1.8966 -1.7272,-4.636 -6.9086,-1.6858 -2.8066,-7.5862 -1.943,-4.636 -4.102,-2.7394 -3.6702,0 -0.4318,-2.318 -3.2384,-0.4214 -1.7272,-6.5326 -3.4542,-5.0574 -5.6134,-0.843 -1.727,-3.161 1.2954,-5.9002 -3.8862,-5.2682 -11.2264,-0.4216 -4.318,-1.475 2.3748,-2.9502 0.8636,-9.6934 3.4544,-5.479 -3.4544,-7.7968 -6.6926,-3.7932 -4.5338,1.0538 -6.045,-2.9502 -8.3054,-0.3598 -5.7278,5.4172 -3.0226,-0.843 0.216,4.2146 -3.4544,1.4752 -0.2158,4.0038 0,4.636 -5.3974,5.9002 -3.4542,1.4752 -3.6702,8.0076 -2.5908,0.6322 -6.4768,4.636 -0.8636,4.4252 -3.2384,1.6858 -1.943,5.479 -6.9086,2.1072 0,3.3716 -4.9656,0.4216 -3.4544,-2.5288 -1.943,1.0536 -3.8862,0.2108 2.5908,4.0038 -1.0794,1.475 -4.7498,0.843 1.0796,3.3716 -2.159,2.5288 0.8636,1.0536 -0.8636,5.6896 0.2158,3.793 -2.8066,2.318 -0.4318,3.7932 -1.943,5.0574 -3.886,0.6322 -4.5338,3.3716 -1.7272,5.0574 -3.2384,0.6322 -1.0794,3.3718 -3.0226,0 1.2954,5.6896 -4.318,1.6858 -0.8634,2.5286 2.3748,1.4752 -3.6702,2.5288 1.0794,2.7394 -0.4318,3.793 -4.5338,0.4216 -0.8636,4.2144 1.7272,1.8966 c 0,0 -1.943,0.4214 -3.0224,1.0536 -1.0796,0.6322 1.5112,2.5288 1.5112,2.5288 l -4.5338,4.8466 -1.943,5.0576 -2.8066,2.95 -4.318,0.4216 -0.4318,5.4788 -3.6702,-1.2644 -2.1588,2.1074 -1.2954,2.9502 -3.8862,0.2106 -1.943,4.2146 0.8636,3.5824 -5.8292,-1.0536 -2.1588,2.318 -4.318,-2.1074 -3.6702,2.5288 1.5112,2.7394 0,2.9502 -3.4542,0.6322 0,6.5326 -2.3748,5.2682 0,3.1608 -6.9086,1.6858 -1.5114,-2.318 -4.7496,8.6398 1.0794,2.5288 -1.943,3.793 0.4318,2.318 -4.3178,5.1498 -12.088,-1.0634 -2.3966,-0.7242 c 0,0 -3.9692,1.9372 -4.885,1.9372 -0.916,0 -3.3586,-1.7882 -3.3586,-1.7882 l -1.6792,3.4272 -2.5952,-4.0232 -7.4804,4.1722 -1.955,-0.371 z"
            style="fill:none;stroke:#646464;stroke-width:0.6;stroke-linecap:butt;stroke-linejoin:round;stroke-miterlimit:4;stroke-opacity:1;stroke-dasharray:none;display:inline"
            id="path6543" />
        <path
            sodipodi:nodetypes="ccccccccccccccccccccccccccccccccccccccccccccccccccccccccccccccccccccccccccccccccccccccccccccccccccccccccccccccccccccccccccccccccccccccccccccccccccccccc"
            inkscape:connector-curvature="0"
            d="m 1884.5902,4106.9143 -0.4318,5.4788 -3.0224,0.4216 -1.9432,2.9502 -4.5338,0.8428 -1.2952,4.8468 -4.9656,-1.8966 -6.4768,3.161 -2.5908,5.4788 -4.102,1.2644 -0.2158,6.7432 -4.6418,1.6858 4.4258,5.9004 -1.0794,15.383 -4.7498,0.4216 -3.2384,1.6858 0.6478,9.272 -8.6358,4.2144 -0.8636,6.7434 1.5112,2.9502 0.216,5.4788 -5.1814,7.3754 -6.0452,0 -1.5112,-1.0536 -7.5562,2.9502 -5.8292,6.954 -1.7272,10.3256 -4.7496,2.318 1.7272,3.161 -2.8068,5.4788 -5.6132,5.9004 1.0796,2.5288 -2.051,4.952 3.778,6.0058 -2.1588,1.6858 0,5.4788 -2.159,3.7932 2.8066,2.9502 4.3178,-4.0038 1.9432,2.7394 3.5036,2.5002 8.3706,0.45 6.045,2.9502 4.5338,-1.0538 6.6926,3.7932 3.4544,7.7968 -3.4544,5.479 -0.8636,9.6934 -2.3748,2.9502 4.318,1.475 11.2264,0.4216 3.8862,5.2682 -1.2954,5.9002 1.727,3.161 5.6134,0.843 3.4542,5.0574 1.7272,6.5326 3.2384,0.4214 0.4318,2.318 3.6702,0 4.102,2.7394 1.943,4.636 2.8066,7.5862 6.9086,1.6858 1.7272,4.636 -4.3178,-1.8966 2.5906,5.2682 3.4544,0 3.0226,1.2644 -5.3974,5.6896 4.102,1.475 -1.5114,3.161 -3.0224,-0.843 0,6.322 10.147,9.272 4.102,0.2106 0.022,2.6674 11.4756,-5.874 4.2744,-4.4702 2.4426,-7.4504 11.5788,-10.3952 9.5118,-0.6398 4.4982,-5.2124 -3.5822,-6.4102 -2.1374,-7.7484 0,-4.1722 3.0532,-2.682 -1.1276,-7.1612 5.9894,-2.9758 -0.7722,-9.3266 -1.964,-9.15 3.1586,-4.7728 0.3054,-4.7682 5.1904,-8.0462 19.8458,-6.2584 13.4936,-12.2802 6.0468,-12.4548 7.6332,-1.49 7.5106,-6.523 1.3436,-10.464 8.549,-1.788 2.7478,-1.49 5.4958,1.192 4.8852,-2.3842 16.182,0.2982 9.4054,-2.857 1.4204,-6.3418 8.8582,0.5418 6.36,-13.6852 2.401,-12.7826 -9.33,-27.9158 5.8722,-18.3488 12.058,-8.523 6.2148,-11.8852 7.4318,-8.9288 12.0754,-4.8502 4.9804,-6.4842 -2.4902,-4.863 -0.415,-5.2686 -4.9194,-3.0256 -10.6142,1.543 -3.3834,3.432 -3.9926,-2.8518 -4.2776,2.2814 0,8.8408 -6.2742,6.8444 -10.5518,1.1408 -2.5666,3.9926 -2.5668,1.711 -7.9852,-9.1258 -6.274,1.711 -1.7112,4.563 1.7112,8.5556 -6.5592,7.7 -14.5446,0 -15.2444,3.6284 -8.944,4.618 -6.636,8.6588 -8.0786,2.3092 -9.5212,-8.3702 -7.213,-11.834 -11.2522,-8.6588 -2.3082,-4.3294 -12.695,-3.7524 -9.2326,1.4432 -25.2454,-7.383 -5.1932,-4.618 -6.636,-1.1546 -6.3474,3.7524 -2.659,-1.721 z"
            style="fill:none;stroke:#646464;stroke-width:0.6;stroke-linecap:butt;stroke-linejoin:round;stroke-miterlimit:4;stroke-opacity:1;stroke-dasharray:none;display:inline"
            id="path6529" />
        <path
            id="path6565"
            style="fill:none;stroke:#646464;stroke-width:0.6;stroke-linecap:butt;stroke-linejoin:round;stroke-miterlimit:4;stroke-opacity:1;stroke-dasharray:none;display:inline"
            d="m 1618.7548,4533.8157 6.548,-2.0738 3.94,-4.5308 2.9686,-3.0554 2.159,0 3.4542,7.27 4.102,-1.3698 1.4034,2.4234 3.6702,-2.7394 2.3748,0.316 -1.943,3.0556 2.9146,4.0038 3.1304,-0.4214 3.0226,1.8966 2.051,-0.9484 5.5052,4.1092 7.4484,0 10.6868,-6.8486 14.8966,-2.0018 3.6702,0.632 8.4198,-3.793 1.6194,-4.4252 4.4258,-0.2108 -1.5114,-3.2662 -0.8636,-3.6878 -4.8576,-5.795 1.2954,-7.9022 0.216,-6.638 -1.7272,-2.2126 0.6308,-4.3046 -4e-4,0 2.823,2.5224 2.4426,0.148 0.6106,2.5332 3.5112,1.192 -0.3052,4.9172 1.2212,0.298 1.9846,2.6822 4.4272,-4.6192 3.6638,1.49 3.2058,-0.148 1.9846,-3.1292 2.9006,-0.298 0.7632,4.7682 5.8012,10.8774 5.801,0.447 6.4118,-2.98 7.3276,-1.6392 1.832,1.4902 6.4118,0 4.885,-1.4902 3.9692,-0.148 2.5952,2.682 4.8852,-0.148 8.549,-7.3014 6.8696,-11.6224 6.5644,-8.3444 4.1218,2.98 15.266,-1.788 7.9384,6.5562 3.8166,1.7882 6.717,6.4072 0.3052,3.4272 12.384,9.209 -2.5408,3.9386 -0.3052,4.4702 3.3584,4.7682 -3.3584,12.5166 -4.8852,4.7682 4.5798,11.3246 -1.5266,5.6622 2.7478,4.1722 -4.2744,4.7682 1.5266,3.8742 -0.6106,4.1722 -2.4426,1.192 -5.1904,8.3444 0.916,11.9204 8.5488,6.2584 -0.9158,4.1722 -3.0532,3.278 -5.4958,1.1922 -1.832,3.576 -9.465,0.298 -5.801,0.2982 -4.4636,5.7862 -0.6106,8.6424 -11.2968,6.8542 -0.3054,3.8742 2.1372,5.6622 -1.8318,6.8544 -5.7432,8.0504 -8.4544,3.9416 -12.8548,0.599 -7.1038,7.8126 -2.2134,-3.4272 -4.1218,-0.447 -2.9006,-6.8544 -3.9692,-0.596 -3.8166,-7.3012 -15.4186,-4.6192 -2.9006,0 -4.5798,-1.4902 -12.2128,-0.745 -10.3808,4.7682 -4.1218,4.9172 -12.8236,4.0232 -12.8234,-2.384 -5.801,-9.8344 -11.297,-3.2782 -5.6484,-3.2782 -4.2744,-0.745 -1.5266,-3.5762 4.5798,-4.1722 1.8318,-11.6224 4.7326,-2.9802 0.6106,-5.8112 3.3584,-5.2152 -0.152,-4.3212 c 0,0 0.7632,-0.148 0.7632,-1.0432 0,-0.894 -1.2212,-6.1092 -1.2212,-6.1092 l -3.0532,-0.596 -3.3586,1.043 -2.9006,-3.129 -4.885,0.596 -5.9538,-6.5564 -4.8852,-0.596 -4.7324,0.894 -4.4272,-3.129 -0.6106,-2.6822 -1.832,-4.0232 -4.885,0.596 -3.0532,-5.6622 -5.4958,-0.745 -5.4758,-4.447 0.4548,-1.7128 -5.197,-4.7328 4.0322,-9.7884 3.0482,-5.0914 2.598,-8.354 -2.7338,-6.3032 z"
            inkscape:connector-curvature="0"
            sodipodi:nodetypes="cccccccccccccccccccccccccccccccccccccccccccccccccccccccccccccccccccccccccccccccccccccccccccccccccccccccccccccccccccccccscccccccccccccccccccccc" />
    </g>
    <g
        inkscape:groupmode="layer"
        id="layer10"
        inkscape:label="Departamentos"
        style="display:inline"
        transform="translate(-1461.3782,-4043.884)">

        <path
            sodipodi:nodetypes="cccccccccccccccccccccccccccccccccccccccccccccccccccccccccccccccccccccccccccccccccccccccccccccccccccccccccccccccccccccccccccccccccccccccccccccccccccccccccccccccccccccccccccccccccccccccccccccccccccccccccccccccccccccccccccccccccccccccccccccccccccccccccccccccccccccccccccccccccccccccccccccccccccccccccccccccccccccccccccccccccccccccccccccccccccccccccccccccccccccccccccccccccccccccccc"
            inkscape:connector-curvature="0"
            d="m 1673.961,4844.4191 -2.4732,-5.6862 3.5304,-10.9042 6.4974,-5.379 10.863,-0.8142 0.8356,-6.5134 -5.0138,-7.3274 4.1782,-4.0708 8.3564,4.885 6.4804,-0.4942 3.3426,0 -0.8354,-9.6894 4.6042,-6.62 8.1344,-3.5504 3.3938,4.0708 4.1782,-7.3276 9.1406,-0.814 2.4956,-6.5254 -1.7272,-9.9042 0.2158,-6.5326 4.7498,-6.7432 -3.0226,-6.954 3.5454,-6.4728 7.2494,-3.6422 6.4768,-11.3792 8.204,-4.2146 4.3178,-9.4828 0.216,-5.4788 9.931,-2.5288 5.5446,-6.3482 -0.034,-12.0902 -6.3738,-2.2912 -1.2108,-6.4768 6.8958,-7.8338 12.8548,-0.599 8.4544,-3.9416 5.7432,-8.0504 1.8318,-6.8544 -2.1372,-5.6622 0.3054,-3.8742 11.2968,-6.8542 0.6106,-8.6424 4.4636,-5.7862 5.801,-0.2982 9.465,-0.298 1.832,-3.576 5.4958,-1.1922 3.0532,-3.278 0.9158,-4.1722 -8.5488,-6.2584 -0.916,-11.9204 5.1904,-8.3444 2.4426,-1.192 0.6106,-4.1722 -1.5266,-3.8742 4.2744,-4.7682 -2.7478,-4.1722 1.5266,-5.6622 -4.5798,-11.3246 4.8852,-4.7682 3.3584,-12.5166 -3.3584,-4.7682 0.3052,-4.4702 2.5952,-3.8742 0,0 4.7326,-3.874 -0.6108,-10.1326 -1.8318,-5.0662 3.0532,-5.0662 7.9382,-10.1324 -0.6106,-6.5564 5.1904,-14.9006 -3.969,-5.6622 2.1372,-2.086 0,-7.1524 -3.0532,-4.3212 -0.6106,-7.3014 6.4116,-3.874 0.3054,-8.0464 2.4426,-3.5762 -2.748,-11.3244 2.748,-2.0862 8.8542,-0.298 -2.4426,-5.0662 8.7814,-17.9178 4.5798,-0.298 11.4852,-5.9428 4.2744,-4.4702 2.4426,-7.4504 11.5788,-10.3952 9.5118,-0.6398 4.4982,-5.2124 -3.5822,-6.4102 -2.1374,-7.7484 0,-4.1722 3.0532,-2.682 -1.1276,-7.1612 5.9894,-2.9758 -0.7722,-9.3266 -1.964,-9.15 3.1586,-4.7728 0.3054,-4.7682 5.1904,-8.0462 19.8458,-6.2584 13.4936,-12.2802 6.0468,-12.4548 7.6332,-1.49 7.5106,-6.523 1.3436,-10.464 8.549,-1.788 2.7478,-1.49 5.4958,1.192 4.8852,-2.3842 16.182,0.2982 9.4054,-2.857 1.4204,-6.3418 8.8582,0.5418 6.36,-13.6852 2.401,-12.7826 -9.33,-27.9158 5.8722,-18.3488 12.058,-8.523 6.2148,-11.8852 7.4318,-8.9288 12.0754,-4.8502 4.9804,-6.4842 -2.4902,-4.863 -0.415,-5.2686 -4.9194,-3.0256 -10.6142,1.543 -3.3834,3.432 -3.9926,-2.8518 -4.2776,2.2814 0,8.8408 -6.2742,6.8444 -10.5518,1.1408 -2.5666,3.9926 -2.5668,1.711 -7.9852,-9.1258 -6.274,1.711 -1.7112,4.563 1.7112,8.5556 -6.5592,7.7 -14.5446,0 -15.2444,3.6284 -8.944,4.618 -6.636,8.6588 -8.0786,2.3092 -9.5212,-8.3702 -7.213,-11.834 -11.2522,-8.6588 -2.3082,-4.3294 -12.695,-3.7524 -9.2326,1.4432 -25.2454,-7.383 -5.1932,-4.618 -6.636,-1.1546 -6.3474,3.7524 -2.5968,-1.732 -6.3474,0.2888 -3.7508,-1.7318 -4.0392,-5.484 -8.9442,0.2886 -9.8096,5.7726 -5.1934,0 -6.059,-8.0818 -6.636,2.0206 -7.0686,9.212 -7.79,-0.289 -6.9246,-3.4634 -7.79,2.0204 -10.6752,-3.4636 -5.7704,-4.618 -2.8852,2.5976 -5.7704,1.1546 0,4.3294 -5.482,5.7728 -6.3474,-5.484 -7.5014,-0.5772 0.2884,-3.4638 -3.1736,-2.5976 -6.059,0 -2.0196,-4.041 -5.1934,-3.752 -6.059,-0.2886 -4.5548,-4.5596 -6.602,0 -3.546,2.3168 -7.2964,2.6878 -5.6204,-0.8344 -1.6346,0.9578 5.9954,4.7542 -2.5802,15.9964 4.2278,12.754 -2.0594,8.2142 6.9238,11.4626 -1.4604,11.6444 -5.0822,5.75 -8.2374,1.6428 -14.8278,-0.8214 -13.1802,-4.1072 -8.2378,1.6428 -5.7662,4.9288 -11.5328,1.6428 -9.0614,-7.393 -6.5902,0 -13.18,-4.9286 -5.7664,0 -13.1802,4.9286 -9.0614,0 -6.5902,-7.3928 -4.9424,0 -9.1084,-2.8118 -3.542,6.6228 0,6.9702 -11.0672,13.9402 -13.3972,5.2276 -3.495,4.6468 0.5824,6.1212 -4.0774,0.5808 -1.7474,9.8744 -4.9382,8.2658 -5.6852,-0.094 -4.5614,8.1202 8.2376,9.0358 -2.412,0.725 4.9426,5.7502 -9.0614,2.4642 -1.6474,4.1072 -6.5902,5.75 4.1188,4.1072 2.4714,0.8216 0.8238,4.9286 7.4138,3.2856 -4.9426,3.2858 0,4.9286 -4.1188,0 0,4.9286 -10.709,5.75 6.2004,6.4436 6.0178,5.6804 -3.495,3.485 -4.0774,-1.7424 -5.2424,4.0658 0,8.7126 -4.0774,6.9702 6.9898,-1.7426 1.165,2.3234 5.2424,1.7426 -4.6598,4.6466 6.4074,2.9042 -0.5826,4.6468 -2.9124,1.7426 3.495,7.551 -4.9246,4.6466 2.1842,7.551 -6.8442,1.1618 0,5.8084 -4.6598,7.551 5.8248,3.485 4.0774,0 2.9126,4.6468 -2.9126,2.3232 -1.165,5.2276 -9.9022,5.2276 4.66,1.7426 0,8.1318 12.8146,5.2276 -5.8248,6.3892 -4.66,0 -5.8248,4.6468 -9.3198,0 6.4074,5.8084 -6.99,2.9042 2.9126,11.0362 -7.2812,3.6902 -3.2036,2.699 6.9898,3.485 -7.698,4.8972 1.2906,3.2346 11.0672,2.9042 1.7476,-1.7424 1.7474,3.485 13.3972,0.5808 3.495,1.1618 1.7474,-3.4852 2.9124,0 8.155,-4.0658 4.0774,6.97 7.135,2.9232 4.8772,-1.5712 4.6598,0 3.1326,9.1032 6.9898,-3.485 2.33,-6.3892 5.8248,5.2274 1.9936,3.7036 4.137,-2.5042 1.4418,6.7558 7.171,-4.0288 2.9124,2.3234 7.5724,2.3234 7.0896,6.2432 -1.2564,4.0542 -4.4932,2.2934 -0.622,9.4546 -3.5702,3.8446 4.7354,3.4114 0.5822,6.97 3.495,3.4852 2.9126,-0.581 4.6598,3.4852 -2.9124,7.551 6.99,3.485 1.7472,4.0658 -7.5722,4.6468 2.9124,8.1318 2.7338,6.3032 -2.598,8.354 -3.0482,5.0914 -4.0322,9.7884 5.197,4.7328 -2.3298,6.3892 7.5724,2.3234 -1.5212,4.3932 4.0774,4.0658 -1.1652,2.9042 -1.7474,1.7426 -1.7472,5.8084 -2.9126,2.3234 -0.5824,9.8744 -4.66,2.9042 0,5.8084 -3.3492,8.5674 -2e-4,2e-4 -8.3004,5.9536 0,8.4222 -4.9512,9.2936 -5.2424,2.0328 -0.2912,6.099 -1.7474,0.5808 0.2912,2.9042 1.7474,2.9042 -8.1118,6.6152 -3.0482,12.9434 4.3696,7.9778 4.1912,5.482 -3.2256,11.7066 -4.9512,5.518 -13.3972,26.4284 -0.5824,6.3892 -6.99,7.551 0.8738,9.8742 2.6212,2.033 -1.165,3.1946 -1.7474,0.2906 -1.4564,3.485 4.0776,9.5838 -3.7862,3.4852 5.8248,12.488 5.825,0.8714 0,8.1318 -7.5724,6.0988 0.5824,8.1318 5.5336,-0.2904 1.7476,-2.3234 9.9022,0 14.5622,7.551 11.941,1.1616 9.6112,5.8084 10.776,0.581 0,-3.7756 4.9512,4.066 0.9234,9.056 2.4712,4.9286 21.4178,-1.6428 11.951,2.9378 z"
            style="fill:none;stroke:#646464;stroke-width:2;stroke-linecap:butt;stroke-linejoin:round;stroke-miterlimit:4;stroke-opacity:1;stroke-dasharray:none;display:inline"
            id="path3338-1" />
        <path
            id="path6272"
            style="fill:none;stroke:#646464;stroke-width:2;stroke-linecap:butt;stroke-linejoin:round;stroke-miterlimit:4;stroke-opacity:1;stroke-dasharray:none;display:inline"
            d="m 1669.0114,4852.3929 5.435,7.455 0.4444,8.4044 9.9356,6.3772 -0.8892,6.457 -7.878,3.8596 0.02,7.698 -9.9578,10.7312"
            inkscape:connector-curvature="0"
            sodipodi:nodetypes="cccccccc" />
    </g>
    <g
        inkscape:groupmode="layer"
        id="layer14"
        inkscape:label="Ríos"
        style="display:inline"
        transform="translate(-1461.3782,-4404.5891)">
        <path
            sodipodi:nodetypes="cccccccccccccccccccccccccccccccccccccccc"
            d="m 1849.6232,4403.5508 -0.816,4.8982 2.0402,1.6328 2.04,6.5308 7.3446,2.449 6.1204,6.5312 5.3044,3.2654 6.9366,1.2244 11.0168,4.4902 10.2006,10.6128 10.6088,4.0818 4.0802,6.531 8.5686,2.449 9.7928,3.2656 2.4482,6.5308 2.4482,-0.8162 8.1606,1.2244 4.8962,-1.2244 6.5286,-9.3882 6.1204,0.408 5.3044,4.49 5.7124,0.4082 7.7526,-5.3062 7.7524,-2.041 2.8562,-6.9392 4.0804,-1.2246 6.9364,0 2.8562,-3.6736 4.0804,0.8164 2.448,-0.4082 -0.816,-7.7554 3.2642,-7.3474 5.3044,-5.3064 3.2642,1.6328 2.4482,3.6736 3.2642,-3.2656 4.4884,-2.0408 2.4482,-5.3064 2.8562,-8.5718 3.6722,-6.531"
            style="fill:none;stroke:#84bcd5;stroke-width:0.7;stroke-linecap:butt;stroke-linejoin:round;stroke-miterlimit:4;stroke-opacity:1;stroke-dasharray:none;display:inline"
            id="path3221-7"
            inkscape:connector-curvature="0" />
        <path
            id="path6017"
            style="fill:none;stroke:#84bcd5;stroke-width:0.7;stroke-linecap:butt;stroke-linejoin:round;stroke-miterlimit:4;stroke-opacity:1;stroke-dasharray:none;display:inline"
            d="m 1555.8232,4401.8357 0.5826,15.6215 -3.495,5.8086 0,4.0659 -5.825,1.1615 -1.0034,3.0625 -3.035,3.2376 4.9512,11.3823 -0.146,6.9701 4.3688,8.7126 -1.1964,15.4559 4.5142,3.4853 11.3346,-4.099 4.247,0.088 2.9438,5.8084 9.9024,8.5676 -4.2626,10.484 0.9582,5.9012 -3.4886,6.4871 0,6.9701 -11.0672,13.9403 -13.3972,5.2276 -3.495,4.6467 0.5824,6.1212 -4.0774,0.5808 -1.7474,9.8745 -4.9382,8.2658 -5.6852,-0.094 -4.5614,8.1202 8.2376,9.0358 -2.412,0.725 4.9426,5.7502 -9.0614,2.4642 -1.6474,4.1072 -6.5902,5.75 4.1188,4.1072 2.4714,0.8216 0.8238,4.9286 7.4138,3.2856 -4.9426,3.2858 0,4.9286 -4.1188,0 0,4.9286 -10.709,5.75 6.2004,6.4436 6.0178,5.6804 -3.495,3.485 -4.0774,-1.7424 -5.2424,4.0658 0,8.7126 -4.0774,6.9702 6.9898,-1.7426 1.165,2.3234 5.2424,1.7426 -4.6598,4.6466 6.4074,2.9042 -0.5826,4.6468 -2.9124,1.7426 3.495,7.551 -4.9246,4.6466 2.1842,7.551 -6.8442,1.1618 0,5.8084 -4.6598,7.551 5.8248,3.485 4.0774,0 2.9126,4.6468 -2.9126,2.3232 -1.165,5.2276 -9.9022,5.2276 4.66,1.7426 0,8.1318 12.8146,5.2276 -5.8248,6.3892 -4.66,0 -5.8248,4.6468 -9.3198,0 6.4074,5.8084 -6.99,2.9042 2.9126,11.0362 -7.2812,3.6902 -3.2036,2.699 6.9898,3.485 -7.698,4.8972 1.2906,3.2346 11.0672,2.9042 1.7476,-1.7424 1.7474,3.485 13.3972,0.5808 3.495,1.1618 1.7474,-3.4852 2.9124,0 8.155,-4.0658 4.0774,6.97 7.135,2.9232 4.8772,-1.5712 4.6598,0 3.1326,9.1032 6.9898,-3.485 2.33,-6.3892 5.8248,5.2274 1.9936,3.7036 4.137,-2.5042 1.4418,6.7558 7.171,-4.0288 2.9124,2.3234 7.5724,2.3234 7.0896,6.2432 -1.2564,4.0542 -4.4932,2.2934 -0.622,9.4546 -3.5702,3.8446 4.7354,3.4114 0.5822,6.97 3.495,3.4852 2.9126,-0.581 4.6598,3.4852 -2.9124,7.551 6.99,3.485 1.7472,4.0658 -7.5722,4.6468 2.9124,8.1318 2.7338,6.3032 -2.598,8.354 -3.0482,5.0914 -4.0322,9.7884 5.197,4.7328 -2.3298,6.3892 7.5724,2.3234 -1.5212,4.3932 4.0774,4.0658 -1.1652,2.9042 -1.7474,1.7426 -1.7472,5.8084 -2.9126,2.3234 -0.5824,9.8744 -4.66,2.9042 0,5.8084 -3.4685,8.6431 0.2699,14.7237 8.1548,5.2276 1.7184,10.3848 5.442,10.3433 4.331,11.347 -1.589,10.3265 -6.249,2.3112 -8.0258,6.0539 -3.324,6.2193 -3.266,10.0857 -2.03,11.4589 -4.872,11.6048 -0.7824,10.0859 4.219,11.6579 -4.9842,12.3509 -3.948,16.1466 0.5906,13.6354 15.6514,3.2859 15.6514,6.9822 7.997,5.3523 -0.9948,12.3085 -0.831,6.7872 0.776,9.5499 2.4712,4.9286 21.4178,-1.643 11.9511,2.9379"
            inkscape:connector-curvature="0"
            sodipodi:nodetypes="ccccccccccccccccccccccccccccccccccccccccccccccccccccccccccccccccccccccccccccccccccccccccccccccccccccccccccccccccccccccccccccccccccccccccccccccccccccccccccccccccccccc" />
        <path
            sodipodi:nodetypes="cccccccccccccccccccccccccccccccccccccccccccccccccccccccccccccccccccccccccccccccccccccccccccccccccccccccscccccccccccccccccccccccccccccccsccccc"
            d="m 2075.2902,4541.4576 -2.2056,2.4222 -1.103,9.1502 -1.93,1.8838 -1.3786,3.7678 -4.1358,2.6912 -5.5144,-2.153 -4.4116,0 -9.0988,-1.8838 -11.856,-2.6914 -5.2388,0 -11.0288,-0.5382 -3.5844,-1.8838 -4.4114,-0.5382 -7.7202,-2.4222 -6.066,-4.8442 -2.7572,0 -5.5144,2.9604 -4.1358,0.2692 -4.963,-2.6914 -8.5474,1.0766 -7.4444,2.153 -0.8272,-0.8074 -4.6872,-0.5382 -5.7902,-3.2296 -4.963,0 -2.2058,-1.6146 -9.3744,1.8838 -4.4116,0 -3.5844,-1.8838 -6.0658,0.5382 -5.2388,-1.8838 -16.5432,-1.884 -4.6872,-8.0736 -4.963,0.2692 -4.6872,1.0764 -3.8602,-0.2692 -8.2716,8.0738 -6.0658,12.6488 -5.2388,4.575 -7.996,2.153 -4.9628,8.0736 -0.2758,11.034 -3.033,1.0766 -4.4114,7.2662 -3.3088,0 -3.3086,0.8074 -1.6544,4.306 -5.5144,-2.153 -0.5514,5.1134 -5.5144,-0.2692 -2.4814,6.459 -1.9302,3.4986 0.2758,9.15 -3.3086,9.1502 -2.4802,0.192 -5.6132,5.2682 -3.0226,-0.843 0.216,4.2146 -3.4544,1.4752 -0.2158,4.0038 0,4.636 -5.3974,5.9002 -3.4542,1.4752 -3.6702,8.0076 -2.5908,0.6322 -6.4768,4.636 -0.8636,4.4252 -3.2384,1.6858 -1.943,5.479 -6.9086,2.1072 0,3.3716 -4.9656,0.4216 -3.4544,-2.5288 -1.943,1.0536 -3.8862,0.2108 2.5908,4.0038 -1.0794,1.475 -4.7498,0.843 1.0796,3.3716 -2.159,2.5288 0.8636,1.0536 -0.8636,5.6896 0.2158,3.793 -2.8066,2.318 -0.4318,3.7932 -1.943,5.0574 -3.886,0.6322 -4.5338,3.3716 -1.7272,5.0574 -3.2384,0.6322 -1.0794,3.3718 -3.0226,0 1.2954,5.6896 -4.318,1.6858 -0.8634,2.5286 2.3748,1.4752 -3.6702,2.5288 1.0794,2.7394 -0.4318,3.793 -4.5338,0.4216 -0.8636,4.2144 1.7272,1.8966 c 0,0 -1.943,0.4214 -3.0224,1.0536 -1.0796,0.6322 1.5112,2.5288 1.5112,2.5288 l -4.5338,4.8466 -1.943,5.0576 -2.8066,2.95 -4.318,0.4216 -0.4318,5.4788 -3.6702,-1.2644 -2.1588,2.1074 -1.2954,2.9502 -3.8862,0.2106 -1.943,4.2146 0.8636,3.5824 -5.8292,-1.0536 -2.1588,2.318 -4.318,-2.1074 -3.6702,2.5288 1.5112,2.7394 0,2.9502 -3.4542,0.6322 0,6.5326 -2.3748,5.2682 0,3.1608 -6.9086,1.6858 -1.5114,-2.318 -4.7496,8.6398 1.0794,2.5288 -1.943,3.793 0.4318,2.318 -4.3178,5.2682 -12.282,-1.1818 -2.2026,-0.7242 c 0,0 -3.9692,1.9372 -4.885,1.9372 -0.916,0 -3.3586,-1.7882 -3.3586,-1.7882 l -1.6792,3.4272 -2.5952,-4.0232 -7.4804,4.1722 -1.7556,-0.5868"
            style="fill:none;stroke:#84bcd5;stroke-width:0.7;stroke-linecap:butt;stroke-linejoin:round;stroke-miterlimit:4;stroke-opacity:1;stroke-dasharray:none;display:inline"
            id="path3371"
            inkscape:connector-curvature="0" />
        <path
            sodipodi:nodetypes="cccccccccccccccccccccccccccccccccccccccccc"
            d="m 1673.7598,5210.7392 4.516,0.6948 11.811,-2.4318 11.4634,-5.9054 7.6426,-7.6424 10.074,0.3474 9.0318,10.074 9.3794,5.2108 5.9056,5.558 0,4.8634 9.0318,6.253 6.9476,0 3.8214,5.2106 4.1684,1.3896 3.8212,-1.0422 3.4738,0 7.6424,6.9476 12.853,0 11.8112,-3.1264 16.6744,7.6424 5.5578,13.2006 -0.3152,7.007 m 207.6858,-1.4632 16.481,-11.3944 10.3772,-7.3248 4.4764,-2.2382 14.4464,-1.6278 17.702,0.8138 3.866,-4.2728 5.2902,0 1.0174,6.511 -3.737,5.2244 -0.02,5.8184 2.883,2.0592 1.2354,-2.471 3.7066,0 4.9422,5.766 5.354,-0.412 1.6474,-2.471 7.0012,-4.1184 4.5304,0.8236 3.7064,-3.2946"
            style="fill:none;stroke:#84bcd5;stroke-width:0.7;stroke-linecap:butt;stroke-linejoin:round;stroke-miterlimit:4;stroke-opacity:1;stroke-dasharray:none;display:inline"
            id="path5931-8"
            inkscape:connector-curvature="0" />
    </g>
    <g
        inkscape:groupmode="layer"
        id="layer16"
        inkscape:label="Lagos"
        style="display:inline"
        transform="translate(-1461.3782,-4404.5891)">
        <path
            id="path2429"
            style="fill:#c6ecff;fill-opacity:1;fill-rule:evenodd;stroke:#84bcd5;stroke-width:0.7;stroke-linecap:butt;stroke-linejoin:round;stroke-miterlimit:4;stroke-opacity:1;stroke-dasharray:none;display:inline"
            d="m 2105.6612,4427.7674 -4.0804,-0.4082 -1.632,-3.2656 0.816,-4.0818 1.632,0.8164 4.0804,1.6328 2.0402,3.6736 z"
            inkscape:connector-curvature="0"
            sodipodi:nodetypes="cccccccc" />
    </g>
    <g
        inkscape:groupmode="layer"
        id="layer13"
        inkscape:label="Poblaciones"
        style="display:inline"
        transform="translate(-1461.3782,-4404.5891)">
    </g>
    <g
        inkscape:groupmode="layer"
        id="layer1"
        inkscape:label="Nombres">
        <text
            xml:space="preserve"
            style="font-style:normal;font-variant:normal;font-weight:normal;font-stretch:normal;line-height:0%;font-family:Arial;-inkscape-font-specification:Arial;text-align:start;letter-spacing:0px;word-spacing:0px;writing-mode:lr-tb;text-anchor:start;display:inline;fill:#000000;fill-opacity:1;stroke:none"
            x="113.09356"
            y="185.62833"
            id="text3872-1"><tspan
         sodipodi:role="line"
         id="tspan3874-7"
         x="113.09356"
         y="185.62833"
         style="font-size:20px;line-height:1.25">Quimbaya</tspan></text>
        <text
            xml:space="preserve"
            style="font-style:normal;font-variant:normal;font-weight:normal;font-stretch:normal;line-height:0%;font-family:Arial;-inkscape-font-specification:Arial;text-align:start;letter-spacing:0px;word-spacing:0px;writing-mode:lr-tb;text-anchor:start;display:inline;fill:#000000;fill-opacity:1;stroke:none"
            x="284.32559"
            y="88.51165"
            id="text3872-4"><tspan
         sodipodi:role="line"
         id="tspan3874-0"
         x="284.32559"
         y="88.51165"
         style="font-size:20px;line-height:1.25">Filandia</tspan></text>
    </g>
</svg>
